<svg width="235" height="222" viewBox="0 0 235 222" fill="none" xmlns="http://www.w3.org/2000/svg">
<g filter="url(#filter0_f_1971_1250)">
<ellipse cx="114.889" cy="182.05" rx="92.6485" ry="17.8731" fill="#1F88F8" fill-opacity="0.35"/>
</g>
<path d="M118.318 203.883C171.381 203.883 214.396 160.867 214.396 107.805C214.396 54.7425 171.381 11.7269 118.318 11.7269C65.2558 11.7269 22.2402 54.7425 22.2402 107.805C22.2402 160.867 65.2558 203.883 118.318 203.883Z" fill="url(#paint0_linear_1971_1250)"/>
<path d="M192.643 50.5646H70.6074V110.788H192.643V50.5646Z" fill="url(#paint1_linear_1971_1250)"/>
<path d="M192.643 50.5646H204.891C212.877 50.5646 220.535 53.7367 226.181 59.3831C231.828 65.0295 235 72.6876 235 80.6727C235 88.6579 231.828 96.316 226.181 101.962C220.535 107.609 212.877 110.781 204.891 110.781H192.643V50.5646Z" fill="url(#paint2_linear_1971_1250)"/>
<path d="M200.565 59.4235H207.573C212.962 59.4235 218.131 61.5643 221.942 65.3751C225.752 69.1859 227.893 74.3545 227.893 79.7438V81.6091C227.893 86.9984 225.752 92.167 221.942 95.9777C218.131 99.7885 212.962 101.929 207.573 101.929H200.565V59.4235Z" fill="url(#paint3_linear_1971_1250)"/>
<path d="M192.643 60.6717H80.8564V110.788H192.643V60.6717Z" fill="url(#paint4_linear_1971_1250)"/>
<rect x="41.4512" y="120.814" width="45.3224" height="58.0444" fill="url(#paint5_linear_1971_1250)"/>
<rect x="97.1094" y="120.814" width="45.3224" height="58.0444" fill="url(#paint6_linear_1971_1250)"/>
<rect x="152.77" y="120.814" width="29.4198" height="58.0444" fill="url(#paint7_linear_1971_1250)"/>
<path d="M192.643 50.5646H182.224V110.788H192.643V50.5646Z" fill="url(#paint8_linear_1971_1250)"/>
<path d="M97.1101 110.477L86.7734 110.477L86.7734 189.195L97.1101 189.195L97.1101 110.477Z" fill="url(#paint9_linear_1971_1250)"/>
<path fill-rule="evenodd" clip-rule="evenodd" d="M147.203 120.814V110.477H41.8941V120.814H147.203ZM147.203 189.195V178.858H41.8941V189.195H147.203ZM35.8605 110.477L41.894 110.477L41.8939 189.195H35.8605C33.2392 189.195 31.1143 187.07 31.1143 184.449L31.1143 115.223C31.1143 112.602 33.2392 110.477 35.8605 110.477Z" fill="url(#paint10_linear_1971_1250)"/>
<path fill-rule="evenodd" clip-rule="evenodd" d="M152.769 110.477H182.189L192.525 110.477L192.525 184.449C192.525 187.07 190.4 189.195 187.779 189.195H182.189L182.189 189.195H152.769V189.195H142.433L142.433 115.223C142.433 112.602 144.558 110.477 147.179 110.477L152.769 110.477ZM182.189 178.858V120.814H152.769L152.769 178.858H182.189Z" fill="url(#paint11_linear_1971_1250)"/>
<path d="M78.7852 110.916V111.029V114.611V140.705H107.107C107.631 140.705 108.056 140.28 108.056 139.755V114.611V111.865C108.056 111.341 107.631 110.916 107.107 110.916H78.7852Z" fill="url(#paint12_linear_1971_1250)"/>
<path d="M77.2168 110.916C76.6926 110.916 76.2676 111.341 76.2676 111.865V139.755C76.2676 140.28 76.6926 140.705 77.2168 140.705H105.539V110.916H77.2168Z" fill="url(#paint13_linear_1971_1250)"/>
<path d="M100.349 113.767H81.4639C80.4154 113.767 79.5654 114.617 79.5654 115.665V135.714C79.5654 136.762 80.4154 137.612 81.4639 137.612H100.349C101.398 137.612 102.248 136.762 102.248 135.714V115.665C102.248 114.617 101.398 113.767 100.349 113.767Z" fill="url(#paint14_linear_1971_1250)"/>
<g filter="url(#filter1_d_1971_1250)">
<path d="M24.7529 90.7559L35.7607 117.828C35.911 118.199 36.1331 118.537 36.4143 118.822C36.6954 119.107 37.0301 119.334 37.3991 119.49C37.7681 119.645 38.1642 119.726 38.5646 119.729C38.965 119.731 39.3619 119.654 39.7325 119.502L64.4006 109.48C65.1507 109.175 65.749 108.585 66.0641 107.839C66.3793 107.093 66.3855 106.252 66.0815 105.501L53.3574 74.2088C53.0522 73.4605 52.4625 72.864 51.7178 72.5501C50.9731 72.2363 50.1343 72.2308 49.3855 72.535L28.8879 80.8688L24.7529 90.7559Z" fill="url(#paint15_linear_1971_1250)"/>
</g>
<g filter="url(#filter2_d_1971_1250)">
<path d="M199.092 74.8532L188.084 101.926C187.934 102.297 187.712 102.635 187.43 102.92C187.149 103.205 186.815 103.432 186.446 103.587C186.077 103.743 185.681 103.824 185.28 103.826C184.88 103.828 184.483 103.751 184.112 103.6L159.444 93.5777C158.694 93.2724 158.096 92.682 157.781 91.936C157.465 91.1899 157.459 90.3494 157.763 89.5988L170.487 58.3062C170.793 57.5579 171.382 56.9613 172.127 56.6475C172.872 56.3336 173.71 56.3282 174.459 56.6323L194.957 64.9661L199.092 74.8532Z" fill="url(#paint16_linear_1971_1250)"/>
</g>
<path d="M24.7529 90.7558L31.7533 87.9117L28.895 80.8687L24.7529 90.7558Z" fill="url(#paint17_linear_1971_1250)"/>
<path d="M199.092 74.8532L192.091 72.009L194.95 64.9661L199.092 74.8532Z" fill="url(#paint18_linear_1971_1250)"/>
<path d="M93.8924 126.69C94.795 126.055 95.4719 125.149 95.8251 124.104C96.1782 123.059 96.1892 121.928 95.8564 120.876C95.5237 119.825 94.8644 118.906 93.9744 118.254C93.0843 117.602 92.0097 117.251 90.9064 117.251C89.8031 117.251 88.7285 117.602 87.8385 118.254C86.9484 118.906 86.2892 119.825 85.9564 120.876C85.6237 121.928 85.6346 123.059 85.9878 124.104C86.3409 125.149 87.0179 126.055 87.9204 126.69L85.6934 134.357H96.1124L93.8924 126.69Z" fill="url(#paint19_linear_1971_1250)"/>
<path d="M158.067 46.2311C158.067 47.3468 157.899 48.4561 157.57 49.5221C157.037 51.2314 156.095 52.7847 154.826 54.0472C154.453 54.4244 154.052 54.773 153.627 55.0898C153.347 55.3077 153.054 55.5067 152.748 55.6856C152.442 55.8726 152.128 56.0431 151.804 56.1963C151.322 56.4343 150.822 56.6335 150.308 56.792C149.242 57.121 148.132 57.2884 147.017 57.2885H144.96V110.589H87.5098V45.075C87.5191 42.4538 88.5645 39.9426 90.418 38.0891C92.2715 36.2356 94.7827 35.1902 97.4039 35.1809H146.988C148.37 35.1756 149.739 35.4331 151.024 35.9398C151.38 36.078 151.729 36.2366 152.067 36.415C152.237 36.5001 152.4 36.5923 152.563 36.6916C152.697 36.7652 152.827 36.8457 152.953 36.9327C153.623 37.3566 154.244 37.8538 154.804 38.4151C155.556 39.1687 156.196 40.0261 156.705 40.9613C157.049 41.5916 157.329 42.2545 157.542 42.9402L157.691 43.4721C157.783 43.8275 157.856 44.1873 157.911 44.5502C158.006 45.1056 158.058 45.6676 158.067 46.2311Z" fill="url(#paint20_linear_1971_1250)"/>
<path d="M158.067 46.2311C158.067 47.3467 157.9 48.456 157.571 49.522C157.353 50.206 157.073 50.8684 156.734 51.5009C156.22 52.4347 155.578 53.2919 154.826 54.0471C154.453 54.4244 154.052 54.7729 153.627 55.0897C153.343 55.3025 153.053 55.494 152.748 55.6855C152.443 55.8725 152.128 56.043 151.804 56.1962C151.321 56.4312 150.821 56.6303 150.308 56.792C149.242 57.121 148.132 57.2883 147.017 57.2884H144.96V45.075C144.964 43.1219 145.545 41.2135 146.629 39.5886C147.712 37.9637 149.251 36.6944 151.053 35.9397C151.407 36.0815 151.762 36.2376 152.095 36.4149C152.265 36.5 152.428 36.5922 152.592 36.6915C152.726 36.7651 152.856 36.8456 152.982 36.9327C153.652 37.3565 154.273 37.8537 154.833 38.415C155.585 39.1686 156.225 40.0261 156.734 40.9613C157.075 41.5929 157.355 42.2555 157.571 42.9401L157.72 43.472C157.812 43.8272 157.885 44.1871 157.939 44.5501C158.025 45.1063 158.068 45.6683 158.067 46.2311Z" fill="url(#paint21_linear_1971_1250)"/>
<path d="M133.49 91.184H97.2117C96.6045 91.184 96.1123 91.6746 96.1123 92.2798C96.1123 92.885 96.6045 93.3756 97.2117 93.3756H133.49C134.097 93.3756 134.59 92.885 134.59 92.2798C134.59 91.6746 134.097 91.184 133.49 91.184Z" fill="#A5C4F1"/>
<path d="M133.49 79.9423H97.2117C96.6045 79.9423 96.1123 80.4329 96.1123 81.0381C96.1123 81.6433 96.6045 82.1339 97.2117 82.1339H133.49C134.097 82.1339 134.59 81.6433 134.59 81.0381C134.59 80.4329 134.097 79.9423 133.49 79.9423Z" fill="#A5C4F1"/>
<path d="M133.491 68.6933H110.128C109.521 68.6933 109.028 69.1839 109.028 69.7891C109.028 70.3943 109.521 70.8849 110.128 70.8849H133.491C134.098 70.8849 134.59 70.3943 134.59 69.7891C134.59 69.1839 134.098 68.6933 133.491 68.6933Z" fill="#A5C4F1"/>
<path d="M118.163 57.4445H96.9563C96.4902 57.4445 96.1123 57.8223 96.1123 58.2885V58.7921C96.1123 59.2582 96.4902 59.6361 96.9563 59.6361H118.163C118.629 59.6361 119.007 59.2582 119.007 58.7921V58.2885C119.007 57.8223 118.629 57.4445 118.163 57.4445Z" fill="#A5C4F1"/>
<path d="M105.014 68.6933H97.2117C96.6045 68.6933 96.1123 69.1839 96.1123 69.7891C96.1123 70.3943 96.6045 70.8849 97.2117 70.8849H105.014C105.621 70.8849 106.113 70.3943 106.113 69.7891C106.113 69.1839 105.621 68.6933 105.014 68.6933Z" fill="#A5C4F1"/>
<path d="M41.8486 120.814H45.4267V178.858H41.8486V120.814Z" fill="url(#paint22_linear_1971_1250)"/>
<path d="M97.1094 140.692H100.29V178.858H97.1094V140.692Z" fill="url(#paint23_linear_1971_1250)"/>
<path d="M152.77 120.814H156.348V178.858H152.77V120.814Z" fill="url(#paint24_linear_1971_1250)"/>
<g filter="url(#filter3_f_1971_1250)">
<ellipse cx="55.3926" cy="71.8337" rx="30.6397" ry="9.84846" fill="#0A2472" fill-opacity="0.2"/>
</g>
<path d="M26.6605 57.4823C27.2515 61.8939 28.9502 66.084 31.5982 69.6616C34.2462 73.2393 37.7573 76.0879 41.8038 77.9419C45.8504 79.7958 50.3006 80.5946 54.7393 80.2637C59.178 79.9328 63.4606 78.4831 67.1875 76.0497L77.3417 79.5016C77.648 79.6026 77.9768 79.6137 78.2892 79.5337C78.6017 79.4536 78.8846 79.2858 79.1047 79.05C79.3248 78.8143 79.4727 78.5204 79.531 78.2032C79.5893 77.886 79.5556 77.5587 79.4338 77.2601L75.3617 67.5468C77.5274 63.9388 78.7974 59.8646 79.0653 55.665C79.3333 51.4655 78.5913 47.2629 76.9016 43.4089C75.2119 39.555 72.6236 36.1619 69.3534 33.5136C66.0832 30.8653 62.2261 29.0389 58.1051 28.1873C53.9841 27.3356 49.7191 27.4835 45.667 28.6186C41.6149 29.7537 37.8936 31.8428 34.8147 34.7113C31.7358 37.5798 29.3887 41.144 27.9701 45.1057C26.5514 49.0675 26.1024 53.3114 26.6605 57.4823Z" fill="url(#paint25_linear_1971_1250)"/>
<path d="M52.084 67.4675C54.9448 67.4675 56.9827 65.5081 56.9827 62.7648C56.9827 60.0215 54.9448 58.0621 52.084 58.0621C49.2624 58.0621 47.1853 60.0215 47.1853 62.7648C47.1853 65.5081 49.2624 67.4675 52.084 67.4675ZM56.003 57.2783C56.003 54.6918 57.4922 53.7512 59.53 52.8107C62.2341 51.5566 64.2328 49.0093 64.2328 45.8741C64.2328 40.9362 59.3733 37.4875 52.7894 37.4875C45.7353 37.4875 40.7582 41.4457 40.3271 46.9714L49.3407 48.6174C49.5759 46.462 50.7124 44.9336 52.3191 44.9336C53.534 44.9336 54.4354 45.7565 54.4354 46.893C54.4354 48.2255 53.1029 49.0485 52.0448 49.6755C49.2232 51.5174 48.1651 53.5553 48.1651 57.2783H56.003Z" fill="white"/>
<path d="M183.597 38.6122C183.597 40.711 181.896 42.4124 179.797 42.4124C177.698 42.4124 175.997 40.711 175.997 38.6122C175.997 36.5134 177.698 34.8119 179.797 34.8119C181.896 34.8119 183.597 36.5134 183.597 38.6122Z" stroke="url(#paint26_linear_1971_1250)" stroke-width="2.61276"/>
<circle cx="156.343" cy="198.601" r="3.80023" stroke="url(#paint27_linear_1971_1250)" stroke-width="2.61276"/>
<path d="M20.945 146.862C22.269 146.65 23.326 147.951 22.8476 149.203L20.4923 155.37C20.014 156.623 18.359 156.888 17.5133 155.847L13.35 150.724C12.5044 149.684 13.1023 148.118 14.4263 147.906L20.945 146.862Z" fill="url(#paint28_linear_1971_1250)"/>
<path d="M206.623 141.203C206.292 139.904 207.492 138.733 208.782 139.096L215.138 140.882C216.429 141.245 216.843 142.869 215.883 143.805L211.159 148.416C210.199 149.353 208.586 148.9 208.254 147.6L206.623 141.203Z" fill="url(#paint29_linear_1971_1250)"/>
<path d="M108.916 8.41711C109.431 6.28414 112.465 6.28414 112.98 8.41711L114.053 12.8622C114.237 13.6244 114.832 14.2195 115.594 14.4035L120.039 15.4765C122.172 15.9914 122.172 19.0253 120.039 19.5402L115.594 20.6132C114.832 20.7972 114.237 21.3924 114.053 22.1546L112.98 26.5996C112.465 28.7326 109.431 28.7326 108.916 26.5996L107.843 22.1546C107.659 21.3924 107.064 20.7972 106.302 20.6132L101.857 19.5402C99.7236 19.0253 99.7236 15.9914 101.857 15.4765L106.302 14.4035C107.064 14.2195 107.659 13.6244 107.843 12.8622L108.916 8.41711Z" fill="url(#paint30_linear_1971_1250)"/>
<path d="M64.5205 194.373C65.0354 192.24 68.0693 192.24 68.5842 194.373L69.6572 198.818C69.8412 199.58 70.4363 200.175 71.1985 200.359L75.6436 201.432C77.7766 201.947 77.7766 204.981 75.6436 205.496L71.1985 206.569C70.4363 206.753 69.8412 207.348 69.6572 208.11L68.5842 212.555C68.0693 214.688 65.0354 214.688 64.5205 212.555L63.4475 208.11C63.2635 207.348 62.6683 206.753 61.9061 206.569L57.4611 205.496C55.3281 204.981 55.3281 201.947 57.4611 201.432L61.9061 200.359C62.6683 200.175 63.2635 199.58 63.4475 198.818L64.5205 194.373Z" fill="url(#paint31_linear_1971_1250)"/>
<defs>
<filter id="filter0_f_1971_1250" x="0.467239" y="142.404" width="228.843" height="79.2923" filterUnits="userSpaceOnUse" color-interpolation-filters="sRGB">
<feFlood flood-opacity="0" result="BackgroundImageFix"/>
<feBlend mode="normal" in="SourceGraphic" in2="BackgroundImageFix" result="shape"/>
<feGaussianBlur stdDeviation="10.8865" result="effect1_foregroundBlur_1971_1250"/>
</filter>
<filter id="filter1_d_1971_1250" x="21.9052" y="72.3107" width="60.5368" height="67.3522" filterUnits="userSpaceOnUse" color-interpolation-filters="sRGB">
<feFlood flood-opacity="0" result="BackgroundImageFix"/>
<feColorMatrix in="SourceAlpha" type="matrix" values="0 0 0 0 0 0 0 0 0 0 0 0 0 0 0 0 0 0 127 0" result="hardAlpha"/>
<feOffset dx="6.64476" dy="10.4418"/>
<feGaussianBlur stdDeviation="4.74626"/>
<feComposite in2="hardAlpha" operator="out"/>
<feColorMatrix type="matrix" values="0 0 0 0 0.184314 0 0 0 0 0.254902 0 0 0 0 0.443137 0 0 0 0.15 0"/>
<feBlend mode="normal" in2="BackgroundImageFix" result="effect1_dropShadow_1971_1250"/>
<feBlend mode="normal" in="SourceGraphic" in2="effect1_dropShadow_1971_1250" result="shape"/>
</filter>
<filter id="filter2_d_1971_1250" x="154.692" y="56.4081" width="60.5368" height="67.3522" filterUnits="userSpaceOnUse" color-interpolation-filters="sRGB">
<feFlood flood-opacity="0" result="BackgroundImageFix"/>
<feColorMatrix in="SourceAlpha" type="matrix" values="0 0 0 0 0 0 0 0 0 0 0 0 0 0 0 0 0 0 127 0" result="hardAlpha"/>
<feOffset dx="6.64476" dy="10.4418"/>
<feGaussianBlur stdDeviation="4.74626"/>
<feComposite in2="hardAlpha" operator="out"/>
<feColorMatrix type="matrix" values="0 0 0 0 0.184314 0 0 0 0 0.254902 0 0 0 0 0.443137 0 0 0 0.15 0"/>
<feBlend mode="normal" in2="BackgroundImageFix" result="effect1_dropShadow_1971_1250"/>
<feBlend mode="normal" in="SourceGraphic" in2="effect1_dropShadow_1971_1250" result="shape"/>
</filter>
<filter id="filter3_f_1971_1250" x="2.97993" y="40.2122" width="104.825" height="63.2429" filterUnits="userSpaceOnUse" color-interpolation-filters="sRGB">
<feFlood flood-opacity="0" result="BackgroundImageFix"/>
<feBlend mode="normal" in="SourceGraphic" in2="BackgroundImageFix" result="shape"/>
<feGaussianBlur stdDeviation="10.8865" result="effect1_foregroundBlur_1971_1250"/>
</filter>
<linearGradient id="paint0_linear_1971_1250" x1="117.578" y1="-19.5584" x2="119.546" y2="317.853" gradientUnits="userSpaceOnUse">
<stop stop-color="#CAE0FF" stop-opacity="0"/>
<stop offset="1" stop-color="#BCD8FF"/>
</linearGradient>
<linearGradient id="paint1_linear_1971_1250" x1="131.625" y1="50.5646" x2="131.625" y2="110.788" gradientUnits="userSpaceOnUse">
<stop stop-color="#ABCCFF"/>
<stop offset="1" stop-color="#70A8FF"/>
</linearGradient>
<linearGradient id="paint2_linear_1971_1250" x1="213.821" y1="50.5646" x2="213.821" y2="110.781" gradientUnits="userSpaceOnUse">
<stop stop-color="#70A8FF"/>
<stop offset="1" stop-color="#5597FD"/>
</linearGradient>
<linearGradient id="paint3_linear_1971_1250" x1="231.884" y1="103.321" x2="204.85" y2="67.54" gradientUnits="userSpaceOnUse">
<stop stop-color="#EDF4FF"/>
<stop offset="1" stop-color="#ABCCFF"/>
</linearGradient>
<linearGradient id="paint4_linear_1971_1250" x1="136.75" y1="60.6717" x2="136.75" y2="110.788" gradientUnits="userSpaceOnUse">
<stop stop-color="#2A64BE"/>
<stop offset="1" stop-color="#6095E7"/>
</linearGradient>
<linearGradient id="paint5_linear_1971_1250" x1="99.098" y1="200.326" x2="43.439" y2="147.848" gradientUnits="userSpaceOnUse">
<stop stop-color="#EDF4FF"/>
<stop offset="1" stop-color="#ABCCFF"/>
</linearGradient>
<linearGradient id="paint6_linear_1971_1250" x1="144.817" y1="184.026" x2="89.1581" y2="160.968" gradientUnits="userSpaceOnUse">
<stop stop-color="#EDF4FF"/>
<stop offset="1" stop-color="#ABCCFF"/>
</linearGradient>
<linearGradient id="paint7_linear_1971_1250" x1="194.116" y1="185.219" x2="142.433" y2="136.319" gradientUnits="userSpaceOnUse">
<stop stop-color="#EDF4FF"/>
<stop offset="1" stop-color="#ABCCFF"/>
</linearGradient>
<linearGradient id="paint8_linear_1971_1250" x1="187.433" y1="50.5646" x2="187.433" y2="110.788" gradientUnits="userSpaceOnUse">
<stop stop-color="#ABCCFF"/>
<stop offset="1" stop-color="#70A8FF"/>
</linearGradient>
<linearGradient id="paint9_linear_1971_1250" x1="74.0514" y1="134.728" x2="66.8952" y2="204.302" gradientUnits="userSpaceOnUse">
<stop stop-color="#ABCCFF"/>
<stop offset="1" stop-color="#70A8FF"/>
</linearGradient>
<linearGradient id="paint10_linear_1971_1250" x1="29.1264" y1="124.392" x2="142.83" y2="176.87" gradientUnits="userSpaceOnUse">
<stop stop-color="#ABCCFF"/>
<stop offset="1" stop-color="#70A8FF"/>
</linearGradient>
<linearGradient id="paint11_linear_1971_1250" x1="231.884" y1="159.378" x2="160.72" y2="161.763" gradientUnits="userSpaceOnUse">
<stop stop-color="#70A8FF"/>
<stop offset="1" stop-color="#5597FD"/>
</linearGradient>
<linearGradient id="paint12_linear_1971_1250" x1="93.4207" y1="110.916" x2="93.4207" y2="140.705" gradientUnits="userSpaceOnUse">
<stop stop-color="#70A8FF"/>
<stop offset="1" stop-color="#5597FD"/>
</linearGradient>
<linearGradient id="paint13_linear_1971_1250" x1="90.9032" y1="110.916" x2="90.9032" y2="140.705" gradientUnits="userSpaceOnUse">
<stop stop-color="#ABCCFF"/>
<stop offset="1" stop-color="#70A8FF"/>
</linearGradient>
<linearGradient id="paint14_linear_1971_1250" x1="90.9065" y1="113.767" x2="90.9065" y2="137.612" gradientUnits="userSpaceOnUse">
<stop stop-color="#70A8FF"/>
<stop offset="1" stop-color="#5597FD"/>
</linearGradient>
<linearGradient id="paint15_linear_1971_1250" x1="61.7956" y1="93.4139" x2="33.8184" y2="90.6205" gradientUnits="userSpaceOnUse">
<stop stop-color="#C6DDFF"/>
<stop offset="1" stop-color="white"/>
</linearGradient>
<linearGradient id="paint16_linear_1971_1250" x1="162.049" y1="77.5112" x2="190.026" y2="74.7178" gradientUnits="userSpaceOnUse">
<stop stop-color="#C6DDFF"/>
<stop offset="1" stop-color="white"/>
</linearGradient>
<linearGradient id="paint17_linear_1971_1250" x1="28.2531" y1="80.8687" x2="28.2531" y2="90.7558" gradientUnits="userSpaceOnUse">
<stop stop-color="#EDF4FF"/>
<stop offset="1" stop-color="#ABCCFF"/>
</linearGradient>
<linearGradient id="paint18_linear_1971_1250" x1="195.592" y1="64.9661" x2="195.592" y2="74.8532" gradientUnits="userSpaceOnUse">
<stop stop-color="#EDF4FF"/>
<stop offset="1" stop-color="#ABCCFF"/>
</linearGradient>
<linearGradient id="paint19_linear_1971_1250" x1="88.3629" y1="129.56" x2="98.6996" y2="129.957" gradientUnits="userSpaceOnUse">
<stop stop-color="#2A64BE"/>
<stop offset="1" stop-color="#4B80D1"/>
</linearGradient>
<linearGradient id="paint20_linear_1971_1250" x1="122.788" y1="35.1808" x2="122.788" y2="110.589" gradientUnits="userSpaceOnUse">
<stop stop-color="#EDF4FF"/>
<stop offset="1" stop-color="#ABCCFF"/>
</linearGradient>
<linearGradient id="paint21_linear_1971_1250" x1="153.167" y1="54.4202" x2="137.662" y2="42.4933" gradientUnits="userSpaceOnUse">
<stop stop-color="#EDF4FF"/>
<stop offset="1" stop-color="#ABCCFF"/>
</linearGradient>
<linearGradient id="paint22_linear_1971_1250" x1="16.8021" y1="176.075" x2="92.0682" y2="167.62" gradientUnits="userSpaceOnUse">
<stop offset="0.09375" stop-color="#2A64BE"/>
<stop offset="1" stop-color="#2A64BE" stop-opacity="0"/>
</linearGradient>
<linearGradient id="paint23_linear_1971_1250" x1="74.8458" y1="177.028" x2="141.066" y2="166.971" gradientUnits="userSpaceOnUse">
<stop offset="0.09375" stop-color="#2A64BE"/>
<stop offset="1" stop-color="#2A64BE" stop-opacity="0"/>
</linearGradient>
<linearGradient id="paint24_linear_1971_1250" x1="127.723" y1="176.075" x2="189.408" y2="181.488" gradientUnits="userSpaceOnUse">
<stop offset="0.09375" stop-color="#265FB8"/>
<stop offset="1" stop-color="#84B4FF"/>
</linearGradient>
<linearGradient id="paint25_linear_1971_1250" x1="26.6818" y1="31.1874" x2="79.1816" y2="80.9461" gradientUnits="userSpaceOnUse">
<stop stop-color="#0A2472"/>
<stop offset="1" stop-color="#0A2472"/>
</linearGradient>
<linearGradient id="paint26_linear_1971_1250" x1="173.52" y1="35.4205" x2="189.478" y2="49.2509" gradientUnits="userSpaceOnUse">
<stop stop-color="#94BFFF"/>
<stop offset="1" stop-color="#4C94FE"/>
</linearGradient>
<linearGradient id="paint27_linear_1971_1250" x1="150.066" y1="195.409" x2="166.024" y2="209.24" gradientUnits="userSpaceOnUse">
<stop stop-color="#94BFFF"/>
<stop offset="1" stop-color="#4C94FE"/>
</linearGradient>
<linearGradient id="paint28_linear_1971_1250" x1="23.9239" y1="146.385" x2="12.6009" y2="155.586" gradientUnits="userSpaceOnUse">
<stop stop-color="#70A8FF"/>
<stop offset="1" stop-color="#5597FD"/>
</linearGradient>
<linearGradient id="paint29_linear_1971_1250" x1="205.878" y1="138.28" x2="216.069" y2="148.721" gradientUnits="userSpaceOnUse">
<stop stop-color="#70A8FF"/>
<stop offset="1" stop-color="#5597FD"/>
</linearGradient>
<linearGradient id="paint30_linear_1971_1250" x1="110.948" y1="0" x2="110.948" y2="35.0168" gradientUnits="userSpaceOnUse">
<stop stop-color="#70A8FF"/>
<stop offset="1" stop-color="#5597FD"/>
</linearGradient>
<linearGradient id="paint31_linear_1971_1250" x1="66.5523" y1="185.956" x2="66.5523" y2="220.972" gradientUnits="userSpaceOnUse">
<stop stop-color="#70A8FF"/>
<stop offset="1" stop-color="#5597FD"/>
</linearGradient>
</defs>
</svg>
