<svg width="526" height="249" viewBox="0 0 526 249" fill="none" xmlns="http://www.w3.org/2000/svg">
<g clip-path="url(#clip0_921_1676)">
<path d="M11.5249 11V8.53H10.9449V7.79H11.5249V7.07H10.9449V6.33H11.5249V3.86H13.0949L13.8749 6.33H14.7849V3.86H15.8949V6.33H16.4649V7.07H15.8949V7.79H16.4649V8.53H15.8949V11H14.3149L13.5149 8.53H12.6349V11H11.5249ZM12.6349 7.79H13.2949L13.0749 7.07H12.6149L12.6349 7.79ZM14.8149 9.44H14.8649L14.8249 8.53H14.5549L14.8149 9.44ZM12.5949 6.33H12.8749L12.5849 5.37H12.5449L12.5949 6.33ZM14.3449 7.79H14.8049L14.7849 7.07H14.1149L14.3449 7.79ZM20.5876 7.81L18.5276 10.08H21.7076V11H17.0976V10.17L19.4676 7.63C20.2676 6.8 20.6476 6.29 20.6476 5.65C20.6476 4.92 20.0676 4.4 19.3076 4.4C18.6976 4.4 18.0976 4.68 17.5176 5.24L16.9676 4.53C17.6776 3.83 18.4676 3.48 19.3276 3.48C19.9976 3.48 20.5476 3.68 20.9776 4.09C21.4076 4.5 21.6176 5.03 21.6176 5.7C21.6176 6.35 21.2776 7.05 20.5876 7.81ZM22.7735 10.51C22.7735 10.16 23.0535 9.89 23.4135 9.89C23.7735 9.89 24.0535 10.16 24.0535 10.51C24.0535 10.88 23.7735 11.16 23.4135 11.16C23.0535 11.16 22.7735 10.88 22.7735 10.51ZM28.5977 7.81L26.5377 10.08H29.7177V11H25.1077V10.17L27.4777 7.63C28.2777 6.8 28.6577 6.29 28.6577 5.65C28.6577 4.92 28.0777 4.4 27.3177 4.4C26.7077 4.4 26.1077 4.68 25.5277 5.24L24.9777 4.53C25.6877 3.83 26.4777 3.48 27.3377 3.48C28.0077 3.48 28.5577 3.68 28.9877 4.09C29.4177 4.5 29.6277 5.03 29.6277 5.7C29.6277 6.35 29.2877 7.05 28.5977 7.81ZM37.1937 5.5C37.8437 5.5 38.3637 5.71 38.7537 6.13C39.1437 6.54 39.3337 7.1 39.3337 7.81V11H38.3737V7.96C38.3737 6.96 37.8837 6.39 37.0837 6.39C36.2437 6.39 35.6537 7.03 35.6537 7.98V11H34.7037V7.98C34.7037 6.98 34.2037 6.39 33.4037 6.39C32.5637 6.39 31.9637 7.03 31.9637 8V11H31.0037V5.64H31.9437V6.43C32.2637 5.84 32.8537 5.49 33.5637 5.5C34.2837 5.5 34.9537 5.87 35.2437 6.5C35.6037 5.89 36.3537 5.5 37.1937 5.5Z" fill="#667085"/>
<path d="M48 8.5H526" stroke="#F9F9FC"/>
<path d="M19.5351 42V39.53H18.9551V38.79H19.5351V38.07H18.9551V37.33H19.5351V34.86H21.1051L21.8851 37.33H22.7951V34.86H23.9051V37.33H24.4751V38.07H23.9051V38.79H24.4751V39.53H23.9051V42H22.3251L21.5251 39.53H20.6451V42H19.5351ZM20.6451 38.79H21.3051L21.0851 38.07H20.6251L20.6451 38.79ZM22.8251 40.44H22.8751L22.8351 39.53H22.5651L22.8251 40.44ZM20.6051 37.33H20.8851L20.5951 36.37H20.5551L20.6051 37.33ZM22.3551 38.79H22.8151L22.7951 38.07H22.1251L22.3551 38.79ZM28.5977 38.81L26.5377 41.08H29.7177V42H25.1077V41.17L27.4777 38.63C28.2777 37.8 28.6577 37.29 28.6577 36.65C28.6577 35.92 28.0777 35.4 27.3177 35.4C26.7077 35.4 26.1077 35.68 25.5277 36.24L24.9777 35.53C25.6877 34.83 26.4777 34.48 27.3377 34.48C28.0077 34.48 28.5577 34.68 28.9877 35.09C29.4177 35.5 29.6277 36.03 29.6277 36.7C29.6277 37.35 29.2877 38.05 28.5977 38.81ZM37.1937 36.5C37.8437 36.5 38.3637 36.71 38.7537 37.13C39.1437 37.54 39.3337 38.1 39.3337 38.81V42H38.3737V38.96C38.3737 37.96 37.8837 37.39 37.0837 37.39C36.2437 37.39 35.6537 38.03 35.6537 38.98V42H34.7037V38.98C34.7037 37.98 34.2037 37.39 33.4037 37.39C32.5637 37.39 31.9637 38.03 31.9637 39V42H31.0037V36.64H31.9437V37.43C32.2637 36.84 32.8537 36.49 33.5637 36.5C34.2837 36.5 34.9537 36.87 35.2437 37.5C35.6037 36.89 36.3537 36.5 37.1937 36.5Z" fill="#667085"/>
<path d="M48 39.5H526" stroke="#F9F9FC"/>
<path d="M12.5894 73V70.53H12.0094V69.79H12.5894V69.07H12.0094V68.33H12.5894V65.86H14.1594L14.9394 68.33H15.8494V65.86H16.9594V68.33H17.5294V69.07H16.9594V69.79H17.5294V70.53H16.9594V73H15.3794L14.5794 70.53H13.6994V73H12.5894ZM13.6994 69.79H14.3594L14.1394 69.07H13.6794L13.6994 69.79ZM15.8794 71.44H15.9294L15.8894 70.53H15.6194L15.8794 71.44ZM13.6594 68.33H13.9394L13.6494 67.37H13.6094L13.6594 68.33ZM15.4094 69.79H15.8694L15.8494 69.07H15.1794L15.4094 69.79ZM17.722 67.37L19.812 65.61H20.602V73H19.612V66.94L18.272 68.06L17.722 67.37ZM22.1095 72.51C22.1095 72.16 22.3895 71.89 22.7495 71.89C23.1095 71.89 23.3895 72.16 23.3895 72.51C23.3895 72.88 23.1095 73.16 22.7495 73.16C22.3895 73.16 22.1095 72.88 22.1095 72.51ZM27.0937 73.12C26.3137 73.12 25.6737 72.92 25.1837 72.52C24.6937 72.12 24.4437 71.62 24.4437 71.01C24.4437 70.18 25.0137 69.42 25.8937 69.09V69.07C25.1737 68.74 24.7537 68.11 24.7537 67.42C24.7537 66.86 24.9737 66.4 25.4037 66.03C25.8337 65.66 26.4037 65.48 27.0937 65.48C27.7837 65.48 28.3437 65.66 28.7737 66.03C29.2037 66.4 29.4237 66.86 29.4237 67.42C29.4237 68.13 28.9937 68.74 28.2737 69.07V69.1C29.1637 69.42 29.7337 70.18 29.7337 71.01C29.7337 71.62 29.4837 72.12 28.9937 72.52C28.5037 72.92 27.8637 73.12 27.0937 73.12ZM28.4637 67.51C28.4637 66.82 27.9037 66.32 27.0937 66.32C26.2537 66.32 25.6937 66.82 25.6937 67.51C25.6937 68.18 26.2437 68.69 27.0837 68.69C27.9237 68.69 28.4637 68.18 28.4637 67.51ZM27.0937 72.25C28.0637 72.25 28.7437 71.68 28.7437 70.88C28.7437 70.11 28.0937 69.55 27.0937 69.55C26.0837 69.55 25.4237 70.11 25.4237 70.88C25.4237 71.68 26.1037 72.25 27.0937 72.25ZM37.1937 67.5C37.8437 67.5 38.3637 67.71 38.7537 68.13C39.1437 68.54 39.3337 69.1 39.3337 69.81V73H38.3737V69.96C38.3737 68.96 37.8837 68.39 37.0837 68.39C36.2437 68.39 35.6537 69.03 35.6537 69.98V73H34.7037V69.98C34.7037 68.98 34.2037 68.39 33.4037 68.39C32.5637 68.39 31.9637 69.03 31.9637 70V73H31.0037V67.64H31.9437V68.43C32.2637 67.84 32.8537 67.49 33.5637 67.5C34.2837 67.5 34.9537 67.87 35.2437 68.5C35.6037 67.89 36.3537 67.5 37.1937 67.5Z" fill="#667085"/>
<path d="M48 70.5H526" stroke="#F9F9FC"/>
<path d="M12.9214 104V101.53H12.3414V100.79H12.9214V100.07H12.3414V99.33H12.9214V96.86H14.4914L15.2714 99.33H16.1814V96.86H17.2914V99.33H17.8614V100.07H17.2914V100.79H17.8614V101.53H17.2914V104H15.7114L14.9114 101.53H14.0314V104H12.9214ZM14.0314 100.79H14.6914L14.4714 100.07H14.0114L14.0314 100.79ZM16.2114 102.44H16.2614L16.2214 101.53H15.9514L16.2114 102.44ZM13.9914 99.33H14.2714L13.9814 98.37H13.9414L13.9914 99.33ZM15.7414 100.79H16.2014L16.1814 100.07H15.5114L15.7414 100.79ZM18.0541 98.37L20.1441 96.61H20.9341V104H19.9441V97.94L18.6041 99.06L18.0541 98.37ZM22.4415 103.51C22.4415 103.16 22.7215 102.89 23.0815 102.89C23.4415 102.89 23.7215 103.16 23.7215 103.51C23.7215 103.88 23.4415 104.16 23.0815 104.16C22.7215 104.16 22.4415 103.88 22.4415 103.51ZM27.2613 104.09C26.3913 104.09 25.7313 103.76 25.2713 103.09C24.8113 102.42 24.5813 101.56 24.5813 100.53C24.5813 98.48 25.5513 96.48 27.6413 96.48C28.3913 96.48 29.0213 96.69 29.5313 97.1L29.1113 97.85C28.6813 97.52 28.2113 97.35 27.7013 97.35C26.1913 97.34 25.5413 99.09 25.5513 100.31V100.35C25.8613 99.68 26.5813 99.23 27.4613 99.23C28.1313 99.23 28.6813 99.46 29.1213 99.91C29.5613 100.36 29.7813 100.93 29.7813 101.62C29.7813 102.33 29.5413 102.92 29.0713 103.39C28.6013 103.86 27.9913 104.09 27.2613 104.09ZM27.2713 103.2C27.7013 103.2 28.0713 103.05 28.3613 102.75C28.6613 102.44 28.8113 102.07 28.8113 101.62C28.8113 101.18 28.6613 100.82 28.3713 100.53C28.0813 100.24 27.7213 100.1 27.2913 100.1C26.8513 100.1 26.4813 100.25 26.1913 100.54C25.9013 100.83 25.7513 101.19 25.7513 101.63C25.7513 102.07 25.9013 102.44 26.1913 102.75C26.4813 103.05 26.8413 103.2 27.2713 103.2ZM37.1937 98.5C37.8437 98.5 38.3637 98.71 38.7537 99.13C39.1437 99.54 39.3337 100.1 39.3337 100.81V104H38.3737V100.96C38.3737 99.96 37.8837 99.39 37.0837 99.39C36.2437 99.39 35.6537 100.03 35.6537 100.98V104H34.7037V100.98C34.7037 99.98 34.2037 99.39 33.4037 99.39C32.5637 99.39 31.9637 100.03 31.9637 101V104H31.0037V98.64H31.9437V99.43C32.2637 98.84 32.8537 98.49 33.5637 98.5C34.2837 98.5 34.9537 98.87 35.2437 99.5C35.6037 98.89 36.3537 98.5 37.1937 98.5Z" fill="#667085"/>
<path d="M48 101.5H526" stroke="#F9F9FC"/>
<path d="M12.8921 135V132.53H12.3121V131.79H12.8921V131.07H12.3121V130.33H12.8921V127.86H14.4621L15.2421 130.33H16.1521V127.86H17.2621V130.33H17.8321V131.07H17.2621V131.79H17.8321V132.53H17.2621V135H15.6821L14.8821 132.53H14.0021V135H12.8921ZM14.0021 131.79H14.6621L14.4421 131.07H13.9821L14.0021 131.79ZM16.1821 133.44H16.2321L16.1921 132.53H15.9221L16.1821 133.44ZM13.9621 130.33H14.2421L13.9521 129.37H13.9121L13.9621 130.33ZM15.7121 131.79H16.1721L16.1521 131.07H15.4821L15.7121 131.79ZM18.0248 129.37L20.1148 127.61H20.9048V135H19.9148V128.94L18.5748 130.06L18.0248 129.37ZM22.4122 134.51C22.4122 134.16 22.6922 133.89 23.0522 133.89C23.4122 133.89 23.6922 134.16 23.6922 134.51C23.6922 134.88 23.4122 135.16 23.0522 135.16C22.6922 135.16 22.4122 134.88 22.4122 134.51ZM28.9762 132.27H29.8062V133.14H28.9762V135H28.0162V133.14H24.5762L24.3662 132.54L28.4062 127.61H28.9762V132.27ZM28.0162 129.42L25.6862 132.27H28.0162V129.42ZM37.1937 129.5C37.8437 129.5 38.3637 129.71 38.7537 130.13C39.1437 130.54 39.3337 131.1 39.3337 131.81V135H38.3737V131.96C38.3737 130.96 37.8837 130.39 37.0837 130.39C36.2437 130.39 35.6537 131.03 35.6537 131.98V135H34.7037V131.98C34.7037 130.98 34.2037 130.39 33.4037 130.39C32.5637 130.39 31.9637 131.03 31.9637 132V135H31.0037V129.64H31.9437V130.43C32.2637 129.84 32.8537 129.49 33.5637 129.5C34.2837 129.5 34.9537 129.87 35.2437 130.5C35.6037 129.89 36.3537 129.5 37.1937 129.5Z" fill="#667085"/>
<path d="M48 132.5H526" stroke="#F9F9FC"/>
<path d="M13.2534 166V163.53H12.6734V162.79H13.2534V162.07H12.6734V161.33H13.2534V158.86H14.8234L15.6034 161.33H16.5134V158.86H17.6234V161.33H18.1934V162.07H17.6234V162.79H18.1934V163.53H17.6234V166H16.0434L15.2434 163.53H14.3634V166H13.2534ZM14.3634 162.79H15.0234L14.8034 162.07H14.3434L14.3634 162.79ZM16.5434 164.44H16.5934L16.5534 163.53H16.2834L16.5434 164.44ZM14.3234 161.33H14.6034L14.3134 160.37H14.2734L14.3234 161.33ZM16.0734 162.79H16.5334L16.5134 162.07H15.8434L16.0734 162.79ZM18.3861 160.37L20.4761 158.61H21.2661V166H20.2761V159.94L18.9361 161.06L18.3861 160.37ZM22.7735 165.51C22.7735 165.16 23.0535 164.89 23.4135 164.89C23.7735 164.89 24.0535 165.16 24.0535 165.51C24.0535 165.88 23.7735 166.16 23.4135 166.16C23.0535 166.16 22.7735 165.88 22.7735 165.51ZM28.5977 162.81L26.5377 165.08H29.7177V166H25.1077V165.17L27.4777 162.63C28.2777 161.8 28.6577 161.29 28.6577 160.65C28.6577 159.92 28.0777 159.4 27.3177 159.4C26.7077 159.4 26.1077 159.68 25.5277 160.24L24.9777 159.53C25.6877 158.83 26.4777 158.48 27.3377 158.48C28.0077 158.48 28.5577 158.68 28.9877 159.09C29.4177 159.5 29.6277 160.03 29.6277 160.7C29.6277 161.35 29.2877 162.05 28.5977 162.81ZM37.1937 160.5C37.8437 160.5 38.3637 160.71 38.7537 161.13C39.1437 161.54 39.3337 162.1 39.3337 162.81V166H38.3737V162.96C38.3737 161.96 37.8837 161.39 37.0837 161.39C36.2437 161.39 35.6537 162.03 35.6537 162.98V166H34.7037V162.98C34.7037 161.98 34.2037 161.39 33.4037 161.39C32.5637 161.39 31.9637 162.03 31.9637 163V166H31.0037V160.64H31.9437V161.43C32.2637 160.84 32.8537 160.49 33.5637 160.5C34.2837 160.5 34.9537 160.87 35.2437 161.5C35.6037 160.89 36.3537 160.5 37.1937 160.5Z" fill="#667085"/>
<path d="M48 163.5H526" stroke="#F9F9FC"/>
<path d="M21.2636 197V194.53H20.6836V193.79H21.2636V193.07H20.6836V192.33H21.2636V189.86H22.8336L23.6136 192.33H24.5236V189.86H25.6336V192.33H26.2036V193.07H25.6336V193.79H26.2036V194.53H25.6336V197H24.0536L23.2536 194.53H22.3736V197H21.2636ZM22.3736 193.79H23.0336L22.8136 193.07H22.3536L22.3736 193.79ZM24.5536 195.44H24.6036L24.5636 194.53H24.2936L24.5536 195.44ZM22.3336 192.33H22.6136L22.3236 191.37H22.2836L22.3336 192.33ZM24.0836 193.79H24.5436L24.5236 193.07H23.8536L24.0836 193.79ZM26.3963 191.37L28.4863 189.61H29.2763V197H28.2863V190.94L26.9463 192.06L26.3963 191.37ZM37.1937 191.5C37.8437 191.5 38.3637 191.71 38.7537 192.13C39.1437 192.54 39.3337 193.1 39.3337 193.81V197H38.3737V193.96C38.3737 192.96 37.8837 192.39 37.0837 192.39C36.2437 192.39 35.6537 193.03 35.6537 193.98V197H34.7037V193.98C34.7037 192.98 34.2037 192.39 33.4037 192.39C32.5637 192.39 31.9637 193.03 31.9637 194V197H31.0037V191.64H31.9437V192.43C32.2637 191.84 32.8537 191.49 33.5637 191.5C34.2837 191.5 34.9537 191.87 35.2437 192.5C35.6037 191.89 36.3537 191.5 37.1937 191.5Z" fill="#667085"/>
<path d="M48 194.5H526" stroke="#F9F9FC"/>
<path d="M9.48391 228V225.53H8.90391V224.79H9.48391V224.07H8.90391V223.33H9.48391V220.86H11.0539L11.8339 223.33H12.7439V220.86H13.8539V223.33H14.4239V224.07H13.8539V224.79H14.4239V225.53H13.8539V228H12.2739L11.4739 225.53H10.5939V228H9.48391ZM10.5939 224.79H11.2539L11.0339 224.07H10.5739L10.5939 224.79ZM12.7739 226.44H12.8239L12.7839 225.53H12.5139L12.7739 226.44ZM10.5539 223.33H10.8339L10.5439 222.37H10.5039L10.5539 223.33ZM12.3039 224.79H12.7639L12.7439 224.07H12.0739L12.3039 224.79ZM17.7066 228.12C16.9266 228.12 16.2866 227.92 15.7966 227.52C15.3066 227.12 15.0566 226.62 15.0566 226.01C15.0566 225.18 15.6266 224.42 16.5066 224.09V224.07C15.7866 223.74 15.3666 223.11 15.3666 222.42C15.3666 221.86 15.5866 221.4 16.0166 221.03C16.4466 220.66 17.0166 220.48 17.7066 220.48C18.3966 220.48 18.9566 220.66 19.3866 221.03C19.8166 221.4 20.0366 221.86 20.0366 222.42C20.0366 223.13 19.6066 223.74 18.8866 224.07V224.1C19.7766 224.42 20.3466 225.18 20.3466 226.01C20.3466 226.62 20.0966 227.12 19.6066 227.52C19.1166 227.92 18.4766 228.12 17.7066 228.12ZM19.0766 222.51C19.0766 221.82 18.5166 221.32 17.7066 221.32C16.8666 221.32 16.3066 221.82 16.3066 222.51C16.3066 223.18 16.8566 223.69 17.6966 223.69C18.5366 223.69 19.0766 223.18 19.0766 222.51ZM17.7066 227.25C18.6766 227.25 19.3566 226.68 19.3566 225.88C19.3566 225.11 18.7066 224.55 17.7066 224.55C16.6966 224.55 16.0366 225.11 16.0366 225.88C16.0366 226.68 16.7166 227.25 17.7066 227.25ZM24.2766 228.12C23.2466 228.12 22.4566 227.63 22.0166 226.87C21.5866 226.11 21.3866 225.25 21.3866 224.3C21.3866 223.35 21.5866 222.49 22.0166 221.73C22.4566 220.97 23.2466 220.48 24.2766 220.48C26.4166 220.48 27.1566 222.51 27.1566 224.3C27.1566 226.09 26.4166 228.12 24.2766 228.12ZM26.1466 224.3C26.1466 223.46 25.9966 222.77 25.6866 222.23C25.3766 221.68 24.9066 221.41 24.2766 221.41C23.6466 221.41 23.1766 221.68 22.8666 222.23C22.5566 222.77 22.4066 223.46 22.4066 224.3C22.4066 225.15 22.5566 225.84 22.8666 226.38C23.1766 226.92 23.6466 227.19 24.2766 227.19C24.9066 227.19 25.3766 226.92 25.6866 226.38C25.9966 225.84 26.1466 225.15 26.1466 224.3ZM31.1137 228.12C30.0837 228.12 29.2937 227.63 28.8537 226.87C28.4237 226.11 28.2237 225.25 28.2237 224.3C28.2237 223.35 28.4237 222.49 28.8537 221.73C29.2937 220.97 30.0837 220.48 31.1137 220.48C33.2537 220.48 33.9937 222.51 33.9937 224.3C33.9937 226.09 33.2537 228.12 31.1137 228.12ZM32.9837 224.3C32.9837 223.46 32.8337 222.77 32.5237 222.23C32.2137 221.68 31.7437 221.41 31.1137 221.41C30.4837 221.41 30.0137 221.68 29.7037 222.23C29.3937 222.77 29.2437 223.46 29.2437 224.3C29.2437 225.15 29.3937 225.84 29.7037 226.38C30.0137 226.92 30.4837 227.19 31.1137 227.19C31.7437 227.19 32.2137 226.92 32.5237 226.38C32.8337 225.84 32.9837 225.15 32.9837 224.3ZM40.0408 228H38.7808L36.7608 225.5L36.2508 225.96V228H35.2908V220.43H36.2508V224.81L38.6508 222.64H39.9508L37.4408 224.89L40.0408 228Z" fill="#667085"/>
<path d="M48 225.5H526" stroke="#F9F9FC"/>
<path d="M62.937 243.12C62.067 243.12 61.367 242.8 60.817 242.17L61.427 241.44C61.827 241.93 62.327 242.17 62.937 242.17C63.807 242.17 64.407 241.59 64.407 240.55V235.61H65.407V240.6C65.407 241.4 65.177 242.02 64.717 242.46C64.267 242.9 63.667 243.12 62.937 243.12ZM71.2443 238.42V237.64H72.1643V243H71.2443V242.24C70.7643 242.83 70.1343 243.13 69.3543 243.13C68.5843 243.13 67.9443 242.86 67.4343 242.31C66.9243 241.76 66.6743 241.09 66.6743 240.28C66.6743 239.48 66.9243 238.82 67.4343 238.3C67.9443 237.77 68.5843 237.51 69.3543 237.51C70.1143 237.51 70.7443 237.81 71.2443 238.42ZM71.3043 240.31C71.3043 239.78 71.1343 239.32 70.7943 238.95C70.4543 238.58 70.0143 238.39 69.4643 238.39C68.9143 238.39 68.4743 238.58 68.1443 238.95C67.8143 239.32 67.6443 239.78 67.6443 240.32C67.6443 240.86 67.8143 241.32 68.1443 241.69C68.4743 242.06 68.9143 242.25 69.4643 242.25C70.0143 242.25 70.4543 242.06 70.7943 241.69C71.1343 241.32 71.3043 240.86 71.3043 240.31ZM74.6647 243H73.7047V237.64H74.6447V238.4C74.9847 237.8 75.5547 237.5 76.3447 237.5C76.9447 237.5 77.4447 237.69 77.8547 238.08C78.2647 238.47 78.4647 239.02 78.4647 239.75V243H77.5147V240.02C77.5147 238.98 76.9547 238.39 76.1447 238.39C75.7147 238.39 75.3547 238.54 75.0747 238.85C74.8047 239.16 74.6647 239.55 74.6647 240.03V243Z" fill="#667085"/>
<path d="M102.436 243H101.436V235.61H105.956V236.58H102.436V238.77H105.506V239.74H102.436V243ZM111.872 240.22C111.872 240.29 111.862 240.45 111.842 240.71H107.572C107.732 241.62 108.332 242.24 109.452 242.24C110.092 242.24 110.832 242 111.322 241.64L111.732 242.37C111.202 242.78 110.322 243.12 109.432 243.12C107.412 243.12 106.572 241.69 106.572 240.3C106.572 239.49 106.822 238.83 107.322 238.3C107.832 237.77 108.482 237.51 109.282 237.51C110.042 237.51 110.662 237.75 111.142 238.24C111.632 238.73 111.872 239.39 111.872 240.22ZM107.572 239.88H110.882C110.832 238.95 110.162 238.36 109.282 238.36C108.402 238.36 107.732 238.99 107.572 239.88ZM115.905 237.51C116.665 237.51 117.295 237.78 117.805 238.33C118.315 238.87 118.575 239.53 118.575 240.32C118.575 241.11 118.315 241.77 117.805 242.32C117.295 242.86 116.665 243.13 115.895 243.13C115.125 243.13 114.495 242.83 114.015 242.22V243H113.055V235.43H114.015V238.45C114.505 237.82 115.135 237.51 115.905 237.51ZM115.785 242.23C116.325 242.23 116.765 242.05 117.095 241.68C117.435 241.31 117.605 240.85 117.605 240.31C117.605 239.78 117.435 239.33 117.095 238.96C116.765 238.59 116.325 238.41 115.785 238.41C115.235 238.41 114.795 238.59 114.465 238.96C114.135 239.33 113.975 239.78 113.975 240.31C113.975 240.86 114.135 241.31 114.465 241.68C114.795 242.05 115.235 242.23 115.785 242.23Z" fill="#667085"/>
<path d="M141.614 243H140.624V235.61H141.104L144.294 240.3L147.464 235.61H147.954V243H146.954V238.01L144.414 241.74H144.154L141.614 238.01V243ZM153.864 238.42V237.64H154.784V243H153.864V242.24C153.384 242.83 152.754 243.13 151.974 243.13C151.204 243.13 150.564 242.86 150.054 242.31C149.544 241.76 149.294 241.09 149.294 240.28C149.294 239.48 149.544 238.82 150.054 238.3C150.564 237.77 151.204 237.51 151.974 237.51C152.734 237.51 153.364 237.81 153.864 238.42ZM153.924 240.31C153.924 239.78 153.754 239.32 153.414 238.95C153.074 238.58 152.634 238.39 152.084 238.39C151.534 238.39 151.094 238.58 150.764 238.95C150.434 239.32 150.264 239.78 150.264 240.32C150.264 240.86 150.434 241.32 150.764 241.69C151.094 242.06 151.534 242.25 152.084 242.25C152.634 242.25 153.074 242.06 153.414 241.69C153.754 241.32 153.924 240.86 153.924 240.31ZM157.285 243H156.325V237.64H157.235V238.43C157.545 237.81 158.065 237.5 158.775 237.5C158.985 237.5 159.195 237.53 159.405 237.58L159.315 238.51C159.125 238.45 158.935 238.42 158.755 238.42C157.905 238.42 157.285 239.01 157.285 240.16V243Z" fill="#667085"/>
<path d="M187.315 243H186.225L185.475 241.08H182.665L181.915 243H180.825L183.815 235.61H184.355L187.315 243ZM185.135 240.14L184.075 237.35L183.005 240.14H185.135ZM191.103 237.51C191.863 237.51 192.503 237.78 193.013 238.33C193.523 238.88 193.783 239.54 193.783 240.32C193.783 241.11 193.523 241.77 193.013 242.32C192.503 242.86 191.863 243.13 191.093 243.13C190.313 243.13 189.683 242.83 189.193 242.22V245.21H188.233V237.64H189.193V238.45C189.693 237.82 190.333 237.51 191.103 237.51ZM192.823 240.31C192.823 239.77 192.653 239.32 192.313 238.95C191.973 238.58 191.533 238.39 190.983 238.39C190.433 238.39 189.993 238.58 189.653 238.95C189.323 239.32 189.153 239.78 189.153 240.31C189.153 240.86 189.323 241.32 189.653 241.69C189.993 242.06 190.433 242.25 190.983 242.25C191.533 242.25 191.973 242.06 192.313 241.69C192.653 241.32 192.823 240.86 192.823 240.31ZM195.942 243H194.982V237.64H195.892V238.43C196.202 237.81 196.722 237.5 197.432 237.5C197.642 237.5 197.852 237.53 198.062 237.58L197.972 238.51C197.782 238.45 197.592 238.42 197.412 238.42C196.562 238.42 195.942 239.01 195.942 240.16V243Z" fill="#667085"/>
<path d="M220.452 243H219.462V235.61H219.942L223.132 240.3L226.302 235.61H226.792V243H225.792V238.01L223.252 241.74H222.992L220.452 238.01V243ZM232.702 238.42V237.64H233.622V243H232.702V242.24C232.222 242.83 231.592 243.13 230.812 243.13C230.042 243.13 229.402 242.86 228.892 242.31C228.382 241.76 228.132 241.09 228.132 240.28C228.132 239.48 228.382 238.82 228.892 238.3C229.402 237.77 230.042 237.51 230.812 237.51C231.572 237.51 232.202 237.81 232.702 238.42ZM232.762 240.31C232.762 239.78 232.592 239.32 232.252 238.95C231.912 238.58 231.472 238.39 230.922 238.39C230.372 238.39 229.932 238.58 229.602 238.95C229.272 239.32 229.102 239.78 229.102 240.32C229.102 240.86 229.272 241.32 229.602 241.69C229.932 242.06 230.372 242.25 230.922 242.25C231.472 242.25 231.912 242.06 232.252 241.69C232.592 241.32 232.762 240.86 232.762 240.31ZM237.323 241.66L238.763 237.64H239.823L237.573 243.6C237.123 244.8 236.553 245.28 235.713 245.28C235.363 245.28 235.083 245.21 234.853 245.07L234.973 244.23C235.223 244.34 235.443 244.39 235.623 244.39C236.063 244.39 236.413 244.08 236.683 243.45L236.883 242.98L234.553 237.64H235.663L237.323 241.66Z" fill="#667085"/>
<path d="M262.459 243.12C261.589 243.12 260.889 242.8 260.339 242.17L260.949 241.44C261.349 241.93 261.849 242.17 262.459 242.17C263.329 242.17 263.929 241.59 263.929 240.55V235.61H264.929V240.6C264.929 241.4 264.699 242.02 264.239 242.46C263.789 242.9 263.189 243.12 262.459 243.12ZM268.747 243.13C267.347 243.13 266.447 242.24 266.447 240.84V237.64H267.407V240.81C267.407 241.69 267.907 242.24 268.747 242.24C269.597 242.24 270.097 241.69 270.097 240.81V237.64H271.047V240.84C271.047 242.27 270.177 243.13 268.747 243.13ZM273.474 243H272.514V237.64H273.454V238.4C273.794 237.8 274.364 237.5 275.154 237.5C275.754 237.5 276.254 237.69 276.664 238.08C277.074 238.47 277.274 239.02 277.274 239.75V243H276.324V240.02C276.324 238.98 275.764 238.39 274.954 238.39C274.524 238.39 274.164 238.54 273.884 238.85C273.614 239.16 273.474 239.55 273.474 240.03V243Z" fill="#667085"/>
<path d="M304.159 243.12C303.289 243.12 302.589 242.8 302.039 242.17L302.649 241.44C303.049 241.93 303.549 242.17 304.159 242.17C305.029 242.17 305.629 241.59 305.629 240.55V235.61H306.629V240.6C306.629 241.4 306.399 242.02 305.939 242.46C305.489 242.9 304.889 243.12 304.159 243.12ZM310.446 243.13C309.046 243.13 308.146 242.24 308.146 240.84V237.64H309.106V240.81C309.106 241.69 309.606 242.24 310.446 242.24C311.296 242.24 311.796 241.69 311.796 240.81V237.64H312.746V240.84C312.746 242.27 311.876 243.13 310.446 243.13ZM315.173 235.43V243H314.213V235.43H315.173Z" fill="#667085"/>
<path d="M345.672 243H344.582L343.832 241.08H341.022L340.272 243H339.182L342.172 235.61H342.712L345.672 243ZM343.492 240.14L342.432 237.35L341.362 240.14H343.492ZM348.742 243.13C347.342 243.13 346.442 242.24 346.442 240.84V237.64H347.402V240.81C347.402 241.69 347.902 242.24 348.742 242.24C349.592 242.24 350.092 241.69 350.092 240.81V237.64H351.042V240.84C351.042 242.27 350.172 243.13 348.742 243.13ZM356.749 238.34V237.64H357.699V242.45C357.699 243.32 357.439 244 356.919 244.51C356.399 245.02 355.699 245.28 354.829 245.28C353.959 245.28 353.169 245.03 352.459 244.52L352.909 243.76C353.489 244.19 354.129 244.41 354.819 244.41C355.409 244.41 355.879 244.24 356.229 243.9C356.579 243.57 356.749 243.14 356.749 242.61V242.17C356.269 242.73 355.639 243.01 354.869 243.01C354.099 243.01 353.459 242.75 352.949 242.22C352.439 241.69 352.179 241.04 352.179 240.25C352.179 239.47 352.439 238.82 352.969 238.3C353.499 237.77 354.149 237.51 354.919 237.51C355.659 237.51 356.269 237.79 356.749 238.34ZM353.669 241.61C354.019 241.97 354.449 242.15 354.979 242.15C355.509 242.15 355.939 241.97 356.289 241.61C356.639 241.25 356.809 240.8 356.809 240.26C356.809 239.72 356.639 239.27 356.289 238.92C355.939 238.56 355.509 238.38 354.979 238.38C354.449 238.38 354.019 238.56 353.669 238.92C353.319 239.27 353.149 239.72 353.149 240.26C353.149 240.8 353.319 241.25 353.669 241.61Z" fill="#667085"/>
<path d="M382.094 243.12C381.024 243.12 380.054 242.59 379.574 241.6L380.314 240.99C380.714 241.78 381.364 242.17 382.084 242.17C382.924 242.17 383.444 241.68 383.444 241.05C383.444 240.65 383.184 240.31 382.674 240.02C382.544 239.95 382.284 239.83 381.914 239.66C381.544 239.49 381.274 239.35 381.084 239.24C380.344 238.77 379.974 238.18 379.974 237.48C379.974 236.91 380.174 236.44 380.584 236.06C380.994 235.67 381.534 235.48 382.204 235.48C383.114 235.48 383.844 235.84 384.374 236.57L383.704 237.21C383.304 236.68 382.804 236.42 382.214 236.42C381.544 236.42 381.044 236.82 381.044 237.42C381.044 237.81 381.254 238.12 381.674 238.37C381.804 238.45 382.084 238.6 382.534 238.81C382.984 239.02 383.294 239.18 383.464 239.28C384.174 239.71 384.534 240.28 384.534 241C384.534 241.63 384.304 242.14 383.834 242.53C383.374 242.92 382.794 243.12 382.094 243.12ZM390.719 240.22C390.719 240.29 390.709 240.45 390.689 240.71H386.419C386.579 241.62 387.179 242.24 388.299 242.24C388.939 242.24 389.679 242 390.169 241.64L390.579 242.37C390.049 242.78 389.169 243.12 388.279 243.12C386.259 243.12 385.419 241.69 385.419 240.3C385.419 239.49 385.669 238.83 386.169 238.3C386.679 237.77 387.329 237.51 388.129 237.51C388.889 237.51 389.509 237.75 389.989 238.24C390.479 238.73 390.719 239.39 390.719 240.22ZM386.419 239.88H389.729C389.679 238.95 389.009 238.36 388.129 238.36C387.249 238.36 386.579 238.99 386.419 239.88ZM394.772 237.51C395.532 237.51 396.172 237.78 396.682 238.33C397.192 238.88 397.452 239.54 397.452 240.32C397.452 241.11 397.192 241.77 396.682 242.32C396.172 242.86 395.532 243.13 394.762 243.13C393.982 243.13 393.352 242.83 392.862 242.22V245.21H391.902V237.64H392.862V238.45C393.362 237.82 394.002 237.51 394.772 237.51ZM396.492 240.31C396.492 239.77 396.322 239.32 395.982 238.95C395.642 238.58 395.202 238.39 394.652 238.39C394.102 238.39 393.662 238.58 393.322 238.95C392.992 239.32 392.822 239.78 392.822 240.31C392.822 240.86 392.992 241.32 393.322 241.69C393.662 242.06 394.102 242.25 394.652 242.25C395.202 242.25 395.642 242.06 395.982 241.69C396.322 241.32 396.492 240.86 396.492 240.31Z" fill="#667085"/>
<path d="M424.442 240.88V235.61H425.432V243H424.912L420.482 237.76V243H419.492V235.61H419.942L424.442 240.88ZM429.596 243.13C428.776 243.13 428.096 242.86 427.566 242.32C427.036 241.77 426.776 241.1 426.776 240.31C426.776 239.52 427.036 238.86 427.566 238.32C428.096 237.77 428.776 237.5 429.596 237.5C430.406 237.5 431.076 237.77 431.606 238.32C432.136 238.87 432.406 239.53 432.406 240.31C432.406 241.1 432.136 241.77 431.606 242.32C431.076 242.86 430.406 243.13 429.596 243.13ZM431.446 240.31C431.446 239.78 431.266 239.33 430.906 238.96C430.546 238.58 430.106 238.39 429.596 238.39C429.086 238.39 428.646 238.58 428.286 238.96C427.926 239.33 427.746 239.78 427.746 240.31C427.746 240.84 427.926 241.3 428.286 241.68C428.646 242.06 429.086 242.25 429.596 242.25C430.106 242.25 430.546 242.06 430.906 241.68C431.266 241.3 431.446 240.84 431.446 240.31ZM435.467 241.65L437.087 237.64H438.147L435.787 242.99H435.117L432.757 237.64H433.827L435.467 241.65Z" fill="#667085"/>
<path d="M459.246 239.35C459.246 238.28 459.616 237.36 460.366 236.61C461.116 235.86 462.016 235.48 463.066 235.48C464.116 235.48 465.016 235.86 465.766 236.61C466.516 237.36 466.896 238.26 466.896 239.31C466.896 240.36 466.516 241.26 465.766 242.01C465.016 242.75 464.106 243.12 463.036 243.12C461.966 243.12 461.066 242.76 460.336 242.03C459.606 241.3 459.246 240.41 459.246 239.35ZM465.856 239.32C465.856 238.51 465.586 237.83 465.046 237.28C464.506 236.73 463.846 236.46 463.066 236.46C462.296 236.46 461.636 236.74 461.096 237.29C460.556 237.84 460.286 238.51 460.286 239.32C460.286 240.12 460.556 240.79 461.086 241.34C461.616 241.88 462.276 242.15 463.066 242.15C463.856 242.15 464.516 241.88 465.046 241.34C465.586 240.8 465.856 240.13 465.856 239.32ZM470.641 243.12C469.811 243.12 469.131 242.86 468.601 242.33C468.071 241.8 467.811 241.13 467.811 240.32C467.811 239.5 468.081 238.83 468.611 238.3C469.151 237.77 469.841 237.51 470.691 237.51C471.741 237.51 472.711 238.06 473.121 238.91L472.331 239.37C471.971 238.77 471.371 238.39 470.691 238.39C470.141 238.39 469.691 238.57 469.321 238.94C468.961 239.31 468.781 239.77 468.781 240.32C468.781 240.87 468.961 241.32 469.311 241.69C469.661 242.06 470.111 242.24 470.641 242.24C471.311 242.24 471.991 241.84 472.301 241.28L473.101 241.74C472.881 242.15 472.551 242.49 472.101 242.74C471.651 242.99 471.171 243.12 470.641 243.12ZM477.317 241.94L477.677 242.68C477.287 242.98 476.817 243.13 476.247 243.13C475.117 243.13 474.537 242.4 474.537 241.12V238.46H473.587V237.64H474.547V235.74H475.487V237.64H477.387V238.46H475.487V241.19C475.487 241.9 475.777 242.25 476.357 242.25C476.667 242.25 476.987 242.15 477.317 241.94Z" fill="#667085"/>
<path d="M501.774 243H499.124V235.61H501.874C502.924 235.61 503.744 235.94 504.354 236.61C504.964 237.28 505.274 238.18 505.274 239.32C505.274 240.45 504.964 241.35 504.334 242.01C503.714 242.67 502.864 243 501.774 243ZM500.124 236.56V242.05H501.814C502.574 242.05 503.164 241.79 503.594 241.28C504.024 240.76 504.234 240.1 504.234 239.29C504.234 238.49 504.024 237.84 503.594 237.33C503.164 236.82 502.574 236.56 501.814 236.56H500.124ZM511.542 240.22C511.542 240.29 511.532 240.45 511.512 240.71H507.242C507.402 241.62 508.002 242.24 509.122 242.24C509.762 242.24 510.502 242 510.992 241.64L511.402 242.37C510.872 242.78 509.992 243.12 509.102 243.12C507.082 243.12 506.242 241.69 506.242 240.3C506.242 239.49 506.492 238.83 506.992 238.3C507.502 237.77 508.152 237.51 508.952 237.51C509.712 237.51 510.332 237.75 510.812 238.24C511.302 238.73 511.542 239.39 511.542 240.22ZM507.242 239.88H510.552C510.502 238.95 509.832 238.36 508.952 238.36C508.072 238.36 507.402 238.99 507.242 239.88ZM515.225 243.12C514.395 243.12 513.715 242.86 513.185 242.33C512.655 241.8 512.395 241.13 512.395 240.32C512.395 239.5 512.665 238.83 513.195 238.3C513.735 237.77 514.425 237.51 515.275 237.51C516.325 237.51 517.295 238.06 517.705 238.91L516.915 239.37C516.555 238.77 515.955 238.39 515.275 238.39C514.725 238.39 514.275 238.57 513.905 238.94C513.545 239.31 513.365 239.77 513.365 240.32C513.365 240.87 513.545 241.32 513.895 241.69C514.245 242.06 514.695 242.24 515.225 242.24C515.895 242.24 516.575 241.84 516.885 241.28L517.685 241.74C517.465 242.15 517.135 242.49 516.685 242.74C516.235 242.99 515.755 243.12 515.225 243.12Z" fill="#667085"/>
<g clip-path="url(#clip1_921_1676)">
<path d="M48 81.0825H47V82.0825V223V224H48H526H527V223V92.9223V91.9223H526C524.043 91.9223 522.484 93.3172 521.235 94.927C519.967 96.5618 518.798 98.714 517.68 100.771L517.653 100.821C516.503 102.937 515.405 104.951 514.247 106.444C513.059 107.976 512.022 108.675 511.062 108.675C510.769 108.675 510.334 108.495 509.749 107.802C509.178 107.124 508.593 106.105 507.998 104.796C506.81 102.182 505.691 98.674 504.547 95.0824L504.532 95.0368C503.405 91.4985 502.253 87.8816 501.01 85.1485C500.387 83.7785 499.713 82.5653 498.967 81.6803C498.233 80.8105 497.29 80.0971 496.125 80.0971C494.945 80.0971 494 80.8428 493.273 81.7355C492.529 82.6476 491.857 83.8988 491.235 85.314C489.993 88.1386 488.842 91.8778 487.714 95.54L487.701 95.5843C486.557 99.2988 485.436 102.932 484.247 105.639C483.651 106.995 483.064 108.053 482.49 108.758C481.9 109.482 481.466 109.66 481.188 109.66C480.143 109.66 479.231 110.127 478.459 110.791C477.691 111.449 477 112.352 476.366 113.362C475.109 115.364 473.947 118.005 472.825 120.555L472.803 120.605C471.656 123.213 470.549 125.724 469.378 127.589C468.794 128.519 468.227 129.233 467.676 129.706C467.13 130.175 466.664 130.354 466.25 130.354C465.913 130.354 465.469 130.172 464.901 129.568C464.337 128.969 463.759 128.066 463.167 126.899C461.984 124.566 460.869 121.432 459.724 118.209L459.707 118.162C458.581 114.994 457.426 111.743 456.179 109.284C455.553 108.049 454.873 106.951 454.118 106.149C453.368 105.351 452.434 104.733 451.312 104.733C450.378 104.733 449.343 104.007 448.145 102.371C446.983 100.785 445.883 98.6464 444.733 96.4075L444.708 96.3574C443.589 94.1771 442.421 91.9027 441.156 90.1758C439.919 88.4863 438.358 86.9951 436.375 86.9951C433.12 86.9951 430.607 88.9003 428.41 90.5653L428.302 90.6471C425.973 92.4124 423.963 93.8932 421.438 93.8932C420.451 93.8932 419.411 93.2214 418.235 91.7937C417.08 90.3927 415.985 88.5018 414.835 86.5097L414.807 86.4611C413.689 84.5261 412.517 82.4963 411.246 80.9539C409.987 79.4253 408.431 78.1262 406.5 78.1262C406.236 78.1262 405.804 77.9498 405.208 77.1941C404.631 76.4627 404.043 75.3652 403.446 73.9616C402.254 71.1609 401.133 67.4036 399.99 63.5663L399.977 63.5232C398.848 59.7372 397.698 55.8756 396.457 52.9595C395.836 51.4992 395.166 50.2101 394.425 49.2709C393.703 48.3559 392.756 47.5777 391.562 47.5777C391.269 47.5777 390.834 47.3981 390.249 46.705C389.678 46.0271 389.093 45.0077 388.498 43.6985C387.31 41.0851 386.191 37.5769 385.047 33.9853L385.032 33.9397C383.905 30.4014 382.753 26.7845 381.51 24.0514C380.887 22.6814 380.213 21.4682 379.467 20.5832C378.733 19.7134 377.79 19 376.625 19C375.905 19 375.313 19.3612 374.86 19.8063C374.408 20.2496 374.013 20.8502 373.661 21.5285C372.953 22.8888 372.301 24.7785 371.688 26.9667C370.459 31.3468 369.315 37.1661 368.182 42.9301L368.175 42.9649C367.034 48.7684 365.904 54.5133 364.699 58.8086C364.095 60.9625 363.488 62.6913 362.878 63.8638C362.572 64.452 362.292 64.8464 362.052 65.0815C361.814 65.3149 361.697 65.3155 361.688 65.3155C358.395 65.3155 355.867 67.506 353.691 69.3919L353.564 69.5013C351.217 71.5336 349.227 73.199 346.75 73.199C344.273 73.199 342.283 71.5336 339.936 69.5013L339.809 69.3919C337.633 67.506 335.105 65.3155 331.812 65.3155C329.237 65.3155 327.202 64.0231 324.888 62.5206L324.799 62.4625C322.583 61.0229 320.089 59.4029 316.875 59.4029C315.815 59.4029 314.898 59.8994 314.129 60.5909C313.364 61.279 312.675 62.2214 312.043 63.2763C310.788 65.3702 309.627 68.1333 308.505 70.8067L308.484 70.8555C307.337 73.5869 306.228 76.2228 305.054 78.181C304.469 79.1586 303.899 79.91 303.346 80.4075C302.797 80.9015 302.336 81.0825 301.938 81.0825C301.687 81.0825 301.257 80.908 300.655 80.1203C300.075 79.3619 299.485 78.2252 298.887 76.7744C297.695 73.88 296.573 69.9983 295.43 66.0382L295.417 65.9945C294.288 62.0851 293.138 58.1019 291.899 55.0948C291.279 53.5892 290.61 52.2624 289.872 51.2962C289.156 50.3595 288.208 49.5485 287 49.5485C285.043 49.5485 283.484 50.9434 282.235 52.5532C280.967 54.1881 279.798 56.3404 278.679 58.398L278.653 58.4473C277.503 60.5629 276.405 62.5774 275.247 64.0705C274.059 65.6018 273.022 66.301 272.062 66.301C270.305 66.301 268.797 67.0474 267.484 68.044C266.195 69.0213 265.007 70.3072 263.893 71.513L263.859 71.5496C262.707 72.7969 261.63 73.9584 260.495 74.8188C259.373 75.67 258.284 76.1553 257.125 76.1553C253.954 76.1553 251.486 77.4916 249.252 78.7009L249.18 78.7395C246.881 79.9838 244.816 81.0825 242.188 81.0825C241.058 81.0825 239.982 80.5623 238.853 79.6209C237.717 78.6725 236.637 77.3915 235.485 76.0195L235.451 75.9797C234.337 74.6533 233.152 73.2418 231.865 72.1686C230.557 71.0774 229.038 70.2427 227.25 70.2427C225.462 70.2427 223.943 71.0774 222.635 72.1686C221.348 73.2419 220.163 74.6535 219.049 75.98L219.016 76.0195C217.863 77.3915 216.783 78.6725 215.647 79.6209C214.518 80.5623 213.442 81.0825 212.312 81.0825C209.142 81.0825 206.673 82.4188 204.439 83.6281L204.368 83.6667C202.069 84.911 200.004 86.0097 197.375 86.0097C195.444 86.0097 193.888 87.3088 192.629 88.8373C191.358 90.3797 190.186 92.4094 189.068 94.3443L189.04 94.3932C187.89 96.3853 186.795 98.2762 185.64 99.6772C184.464 101.105 183.424 101.777 182.438 101.777C180.65 101.777 179.13 102.611 177.822 103.703C176.536 104.776 175.35 106.187 174.236 107.514L174.203 107.553C173.051 108.925 171.971 110.206 170.834 111.155C169.706 112.096 168.629 112.617 167.5 112.617C166.591 112.617 165.556 111.864 164.347 110.121C163.182 108.442 162.079 106.18 160.931 103.818L160.906 103.768C159.786 101.464 158.621 99.0675 157.359 97.2486C156.132 95.4808 154.57 93.8932 152.562 93.8932C152.24 93.8932 151.8 93.7114 151.226 93.0785C150.66 92.4535 150.08 91.5116 149.486 90.2971C148.302 87.8709 147.185 84.612 146.04 81.2661L146.024 81.2191C144.898 77.9282 143.744 74.5554 142.498 72.0049C141.873 70.725 141.195 69.5883 140.444 68.7583C139.699 67.9361 138.761 67.2864 137.625 67.2864C136.338 67.2864 135.388 68.2959 134.707 69.3542C133.982 70.4795 133.322 72.032 132.706 73.8096C131.472 77.3655 130.325 82.0828 129.194 86.7345L129.185 86.7735C128.043 91.4708 126.916 96.0987 125.717 99.5542C125.116 101.287 124.518 102.66 123.924 103.583C123.287 104.572 122.859 104.733 122.688 104.733C120.21 104.733 118.22 103.068 115.873 101.035L115.747 100.926C113.57 99.04 111.042 96.8495 107.75 96.8495C105.819 96.8495 104.263 98.1486 103.004 99.6772C101.733 101.22 100.561 103.249 99.4434 105.184L99.4152 105.233C98.2649 107.225 97.1699 109.116 96.0154 110.517C94.8388 111.945 93.7986 112.617 92.8125 112.617C92.4449 112.617 91.9934 112.434 91.4354 111.886C90.8773 111.339 90.3034 110.512 89.7143 109.44C88.5357 107.294 87.4231 104.409 86.277 101.432L86.2583 101.383C85.1342 98.4633 83.9768 95.4565 82.7261 93.1799C82.0971 92.035 81.4128 91.0142 80.6528 90.2685C79.8925 89.5225 78.9658 88.966 77.875 88.966C74.7998 88.966 72.3967 89.7464 70.1358 90.4806L70.0974 90.4931C67.8175 91.2334 65.6783 91.9223 62.9375 91.9223C61.8085 91.9223 60.7318 91.4021 59.6035 90.4607C58.4666 89.5123 57.3868 88.2313 56.2345 86.8593L56.2012 86.8196C55.0872 85.4932 53.9017 84.0816 52.6153 83.0084C51.3074 81.9172 49.7877 81.0825 48 81.0825Z" fill="url(#paint0_linear_921_1676)" fill-opacity="0.5" stroke="#3185FC" stroke-width="2"/>
</g>
</g>
<defs>
<linearGradient id="paint0_linear_921_1676" x1="287" y1="-37.8582" x2="287" y2="214.3" gradientUnits="userSpaceOnUse">
<stop stop-color="#3185FC"/>
<stop offset="0.998794" stop-color="white" stop-opacity="0"/>
</linearGradient>
<clipPath id="clip0_921_1676">
<rect width="526" height="249" fill="white"/>
</clipPath>
<clipPath id="clip1_921_1676">
<rect width="478" height="215" fill="white" transform="translate(48 8)"/>
</clipPath>
</defs>
</svg>
