<svg width="140" height="22" viewBox="0 0 140 22" fill="none" xmlns="http://www.w3.org/2000/svg">
<path d="M4.38 16H0.984V7.132H4.452C5.784 7.132 6.828 7.528 7.584 8.332C8.34 9.124 8.724 10.204 8.724 11.584C8.724 12.94 8.34 14.02 7.56 14.812C6.792 15.604 5.736 16 4.38 16ZM2.76 8.836V14.296H4.464C5.232 14.296 5.82 14.032 6.24 13.516C6.66 13 6.876 12.34 6.876 11.548C6.876 10.768 6.66 10.132 6.24 9.616C5.82 9.1 5.232 8.836 4.464 8.836H2.76ZM9.65438 12.724C9.65438 11.764 9.97838 10.948 10.6384 10.288C11.2984 9.616 12.1384 9.28 13.1584 9.28C14.1784 9.28 15.0184 9.616 15.6784 10.288C16.3384 10.948 16.6624 11.764 16.6624 12.724C16.6624 13.696 16.3384 14.512 15.6784 15.172C15.0184 15.832 14.1784 16.168 13.1584 16.168C12.1384 16.168 11.2984 15.832 10.6384 15.172C9.97838 14.512 9.65438 13.696 9.65438 12.724ZM11.8624 14.056C12.2104 14.416 12.6424 14.596 13.1584 14.596C13.6744 14.596 14.0944 14.416 14.4424 14.056C14.7904 13.684 14.9704 13.24 14.9704 12.724C14.9704 12.208 14.7904 11.764 14.4424 11.404C14.0944 11.044 13.6744 10.864 13.1584 10.864C12.6424 10.864 12.2104 11.044 11.8624 11.404C11.5144 11.764 11.3464 12.208 11.3464 12.724C11.3464 13.24 11.5144 13.684 11.8624 14.056ZM20.6907 15.988H19.2147L16.9827 9.46H18.7587L20.0667 13.744L21.5427 9.46H22.7307L24.2547 13.744L25.5267 9.46H27.3027L25.0947 15.988H23.6187L22.1427 11.896L20.6907 15.988ZM29.8702 16H28.1782V9.46H29.8342V10.372C30.1822 9.736 30.9622 9.28 31.8862 9.28C32.5942 9.28 33.2062 9.52 33.6982 9.988C34.1902 10.456 34.4422 11.128 34.4422 12.004V16H32.7502V12.46C32.7502 11.416 32.1982 10.84 31.3702 10.84C30.4702 10.84 29.8702 11.524 29.8702 12.496V16ZM37.5811 6.88V16H35.8891V6.88H37.5811ZM38.752 12.724C38.752 11.764 39.076 10.948 39.736 10.288C40.396 9.616 41.236 9.28 42.256 9.28C43.276 9.28 44.116 9.616 44.776 10.288C45.436 10.948 45.76 11.764 45.76 12.724C45.76 13.696 45.436 14.512 44.776 15.172C44.116 15.832 43.276 16.168 42.256 16.168C41.236 16.168 40.396 15.832 39.736 15.172C39.076 14.512 38.752 13.696 38.752 12.724ZM40.96 14.056C41.308 14.416 41.74 14.596 42.256 14.596C42.772 14.596 43.192 14.416 43.54 14.056C43.888 13.684 44.068 13.24 44.068 12.724C44.068 12.208 43.888 11.764 43.54 11.404C43.192 11.044 42.772 10.864 42.256 10.864C41.74 10.864 41.308 11.044 40.96 11.404C40.612 11.764 40.444 12.208 40.444 12.724C40.444 13.24 40.612 13.684 40.96 14.056ZM51.9316 10.24V9.46H53.5396V16H51.9316V15.244C51.3676 15.856 50.6716 16.156 49.8436 16.156C48.9076 16.156 48.1276 15.832 47.5156 15.172C46.9036 14.512 46.6036 13.684 46.6036 12.7C46.6036 11.716 46.9156 10.9 47.5276 10.264C48.1396 9.616 48.9196 9.292 49.8436 9.292C50.6596 9.292 51.3556 9.604 51.9316 10.24ZM51.9556 12.724C51.9556 12.208 51.7756 11.764 51.4276 11.392C51.0796 11.02 50.6476 10.84 50.1196 10.84C49.5796 10.84 49.1476 11.02 48.7996 11.392C48.4636 11.764 48.2956 12.208 48.2956 12.724C48.2956 13.252 48.4636 13.696 48.8116 14.068C49.1596 14.44 49.5916 14.62 50.1196 14.62C50.6476 14.62 51.0796 14.44 51.4276 14.068C51.7756 13.696 51.9556 13.252 51.9556 12.724ZM59.945 10.216V6.88H61.637V16H59.981V15.196C59.453 15.832 58.781 16.156 57.953 16.156C57.029 16.156 56.249 15.832 55.637 15.184C55.025 14.524 54.713 13.708 54.713 12.724C54.713 11.752 55.025 10.936 55.637 10.276C56.261 9.616 57.029 9.292 57.953 9.292C58.745 9.292 59.405 9.604 59.945 10.216ZM60.029 12.724C60.029 12.196 59.861 11.752 59.525 11.392C59.189 11.02 58.757 10.84 58.217 10.84C57.677 10.84 57.245 11.02 56.897 11.392C56.561 11.752 56.393 12.196 56.393 12.724C56.393 13.264 56.561 13.708 56.897 14.08C57.245 14.44 57.677 14.62 58.217 14.62C58.757 14.62 59.189 14.44 59.525 14.08C59.861 13.708 60.029 13.264 60.029 12.724ZM67.8272 16H66.1352V9.46H67.7552V10.336C68.1512 9.628 68.7512 9.28 69.5552 9.28C69.8192 9.28 70.0832 9.328 70.3472 9.424L70.2032 11.044C69.9272 10.96 69.6632 10.912 69.4232 10.912C68.4632 10.912 67.8272 11.536 67.8272 12.892V16ZM77.3113 12.58C77.3113 12.808 77.2873 13.06 77.2513 13.324H72.3433C72.5833 14.248 73.2193 14.716 74.2513 14.716C74.9593 14.716 75.7993 14.44 76.3633 14.056L77.0353 15.244C76.2073 15.844 75.2593 16.144 74.1793 16.144C73.0273 16.144 72.1513 15.808 71.5393 15.148C70.9273 14.488 70.6273 13.672 70.6273 12.724C70.6273 11.728 70.9393 10.912 71.5753 10.264C72.2113 9.616 73.0273 9.292 74.0353 9.292C74.9833 9.292 75.7753 9.592 76.3873 10.18C76.9993 10.768 77.3113 11.56 77.3113 12.58ZM74.0353 10.696C73.1833 10.696 72.5473 11.212 72.3433 12.064H75.6673C75.5113 11.212 74.8993 10.696 74.0353 10.696ZM81.595 16.144C80.575 16.144 79.747 15.82 79.099 15.184C78.451 14.548 78.127 13.72 78.127 12.724C78.127 11.728 78.451 10.9 79.111 10.264C79.771 9.616 80.611 9.292 81.643 9.292C82.975 9.292 84.151 9.952 84.691 11.116L83.335 11.86C82.939 11.2 82.375 10.864 81.667 10.864C81.127 10.864 80.683 11.044 80.335 11.404C79.987 11.752 79.807 12.196 79.807 12.724C79.807 13.264 79.975 13.708 80.323 14.068C80.671 14.416 81.115 14.596 81.631 14.596C82.315 14.596 83.011 14.188 83.299 13.612L84.667 14.416C84.103 15.472 82.939 16.144 81.595 16.144ZM92.0301 12.58C92.0301 12.808 92.0061 13.06 91.9701 13.324H87.0621C87.3021 14.248 87.9381 14.716 88.9701 14.716C89.6781 14.716 90.5181 14.44 91.0821 14.056L91.7541 15.244C90.9261 15.844 89.9781 16.144 88.8981 16.144C87.7461 16.144 86.8701 15.808 86.2581 15.148C85.6461 14.488 85.3461 13.672 85.3461 12.724C85.3461 11.728 85.6581 10.912 86.2941 10.264C86.9301 9.616 87.7461 9.292 88.7541 9.292C89.7021 9.292 90.4941 9.592 91.1061 10.18C91.7181 10.768 92.0301 11.56 92.0301 12.58ZM88.7541 10.696C87.9021 10.696 87.2661 11.212 87.0621 12.064H90.3861C90.2301 11.212 89.6181 10.696 88.7541 10.696ZM94.8138 8.428C94.4178 8.824 93.7218 8.824 93.3258 8.428C92.9298 8.032 92.9298 7.336 93.3258 6.952C93.7218 6.556 94.4178 6.556 94.8138 6.952C95.2098 7.336 95.2098 8.032 94.8138 8.428ZM94.9098 9.46V16H93.2178V9.46H94.9098ZM100.172 9.292C101.096 9.292 101.864 9.628 102.476 10.288C103.088 10.948 103.388 11.764 103.388 12.724C103.388 13.684 103.076 14.5 102.464 15.16C101.852 15.82 101.084 16.156 100.16 16.156C99.3564 16.156 98.6724 15.856 98.1084 15.244V18.688H96.4164V9.46H98.0964V10.264C98.6604 9.616 99.3444 9.292 100.172 9.292ZM99.8724 14.608C100.412 14.608 100.844 14.428 101.18 14.068C101.516 13.708 101.684 13.264 101.684 12.736C101.684 12.208 101.516 11.764 101.18 11.404C100.844 11.044 100.412 10.864 99.8724 10.864C99.3444 10.864 98.9124 11.044 98.5764 11.404C98.2404 11.764 98.0724 12.208 98.0724 12.736C98.0724 13.264 98.2404 13.708 98.5764 14.068C98.9124 14.428 99.3444 14.608 99.8724 14.608ZM108.703 14.284L109.207 15.616C108.667 15.976 108.031 16.156 107.275 16.156C105.775 16.156 104.995 15.268 104.995 13.576V10.876H103.927V9.46H105.007V7.144H106.687V9.46H108.847V10.876H106.687V13.468C106.687 14.236 106.999 14.62 107.611 14.62C107.935 14.62 108.307 14.512 108.703 14.284Z" fill="#3185FC"/>
<path d="M124 13.333L119.833 9.16634L121 7.95801L123.167 10.1247V3.33301H124.833V10.1247L127 7.95801L128.167 9.16634L124 13.333ZM119 16.6663C118.542 16.6663 118.149 16.5033 117.823 16.1772C117.497 15.8511 117.334 15.4586 117.333 14.9997V12.4997H119V14.9997H129V12.4997H130.667V14.9997C130.667 15.458 130.504 15.8505 130.177 16.1772C129.851 16.5038 129.459 16.6669 129 16.6663H119Z" fill="#3185FC"/>
</svg>
