<svg width="22" height="22" viewBox="0 0 22 22" fill="none" xmlns="http://www.w3.org/2000/svg">
<path d="M21.6 1.1C21.5 0.800004 21.2 0.500004 20.9 0.400004C16.7001 -0.699996 12.4 0.600004 9.50005 4L8.40005 5.3L5.70005 4.7C4.40005 4.2 3.00005 4.8 2.40005 6L0.200049 9.9C4.88311e-05 10.2 4.88311e-05 10.5 0.200049 10.8C0.300049 11.1 0.600049 11.3 0.900049 11.4L4.00005 12.1C3.70005 12.9 3.60005 13.7 3.40005 14.5C3.40005 14.8 3.50005 15.1 3.70005 15.3L6.80005 18.4C7.00005 18.6 7.20005 18.7 7.50005 18.7H7.60005C8.50005 18.6 9.30005 18.5 10.1 18.2L10.7 21.2C10.8 21.5 11 21.8 11.3 21.9C11.4 22 11.6 22 11.7 22C11.9 22 12 22 12.2 21.9L16.1 19.7C17.2001 19.1 17.8 17.7 17.5 16.4L16.8 13.6L18 12.5C21.3 9.7 22.7001 5.2 21.6 1.1ZM6.30005 7.8C5.70005 8.6 5.10005 9.4 4.70005 10.2L2.60005 9.7L4.10005 7C4.30005 6.6 4.70005 6.5 5.20005 6.6L6.90005 7L6.30005 7.8ZM15 17.9L12.3 19.4L11.9 17.4C12.8 17 13.6 16.4 14.3 15.8L15 15.1L15.4 16.8C15.6 17.3 15.3 17.8 15 17.9ZM15.7 7.8C14.9 7.8 14.2 7.1 14.2 6.3C14.2 5.5 14.9 4.8 15.7 4.8C16.5 4.8 17.2001 5.5 17.2001 6.3C17.2001 7.1 16.6 7.8 15.7 7.8Z" fill="black"/>
</svg>
