<svg width="22" height="22" viewBox="0 0 22 22" fill="none" xmlns="http://www.w3.org/2000/svg">
<path d="M21.5998 1.09988C21.4998 0.799882 21.1998 0.499882 20.8998 0.399882C16.6998 -0.700118 12.3998 0.599882 9.4998 3.99988L8.3998 5.29988L5.6998 4.69988C4.3998 4.19988 2.9998 4.79988 2.3998 5.99988L0.199805 9.89988C-0.00019531 10.1999 -0.00019531 10.4999 0.199805 10.7999C0.299805 11.0999 0.599805 11.2999 0.899805 11.3999L3.9998 12.0999C3.6998 12.8999 3.5998 13.6999 3.3998 14.4999C3.3998 14.7999 3.4998 15.0999 3.6998 15.2999L6.7998 18.3999C6.9998 18.5999 7.1998 18.6999 7.4998 18.6999H7.5998C8.4998 18.5999 9.2998 18.4999 10.0998 18.1999L10.6998 21.1999C10.7998 21.4999 10.9998 21.7999 11.2998 21.8999C11.3998 21.9999 11.5998 21.9999 11.6998 21.9999C11.8998 21.9999 11.9998 21.9999 12.1998 21.8999L16.0998 19.6999C17.1998 19.0999 17.7998 17.6999 17.4998 16.3999L16.7998 13.5999L17.9998 12.4999C21.2998 9.69988 22.6998 5.19988 21.5998 1.09988ZM6.2998 7.79988C5.6998 8.59988 5.0998 9.39988 4.6998 10.1999L2.5998 9.69988L4.0998 6.99988C4.2998 6.59988 4.6998 6.49988 5.1998 6.59988L6.8998 6.99988L6.2998 7.79988ZM14.9998 17.8999L12.2998 19.3999L11.8998 17.3999C12.7998 16.9999 13.5998 16.3999 14.2998 15.7999L14.9998 15.0999L15.3998 16.7999C15.5998 17.2999 15.2998 17.7999 14.9998 17.8999ZM15.6998 7.79988C14.8998 7.79988 14.1998 7.09988 14.1998 6.29988C14.1998 5.49988 14.8998 4.79988 15.6998 4.79988C16.4998 4.79988 17.1998 5.49988 17.1998 6.29988C17.1998 7.09988 16.5998 7.79988 15.6998 7.79988Z" fill="#0A2472"/>
</svg>
