<svg width="24" height="24" viewBox="0 0 24 24" fill="none" xmlns="http://www.w3.org/2000/svg">
<g clip-path="url(#clip0_615_6929)">
<path fill-rule="evenodd" clip-rule="evenodd" d="M19.7064 11.293C19.8938 11.4805 19.9992 11.7348 19.9992 12C19.9992 12.2652 19.8938 12.5195 19.7064 12.707L14.0494 18.364C13.9571 18.4595 13.8468 18.5357 13.7248 18.5881C13.6028 18.6405 13.4715 18.6681 13.3388 18.6692C13.206 18.6704 13.0743 18.6451 12.9514 18.5948C12.8285 18.5445 12.7169 18.4703 12.623 18.3764C12.5291 18.2825 12.4548 18.1708 12.4045 18.048C12.3543 17.9251 12.329 17.7934 12.3301 17.6606C12.3313 17.5278 12.3589 17.3966 12.4113 17.2746C12.4637 17.1526 12.5399 17.0422 12.6354 16.95L17.5854 12L12.6354 7.05C12.4532 6.8614 12.3524 6.60879 12.3547 6.3466C12.357 6.0844 12.4621 5.83359 12.6475 5.64818C12.833 5.46277 13.0838 5.3576 13.346 5.35532C13.6082 5.35305 13.8608 5.45384 14.0494 5.636L19.7064 11.293Z" fill="#0A2472"/>
</g>
<defs>
<clipPath id="clip0_615_6929">
<rect width="24" height="24" fill="white"/>
</clipPath>
</defs>
</svg>
