<svg width="24" height="24" viewBox="0 0 24 24" fill="none" xmlns="http://www.w3.org/2000/svg">
<g clip-path="url(#clip0_217_100)">
<path d="M20.6251 18.0233C20.6251 18.5113 20.2295 18.907 19.7414 18.907H3.83025C3.34219 18.907 2.94653 18.5113 2.94653 18.0233C2.94653 17.5352 3.3424 17.1395 3.83046 17.1395V10.9809C3.83046 6.57288 7.39269 3 11.7858 3C16.1789 3 19.7412 6.57288 19.7412 10.9809V17.1395C20.2292 17.1395 20.6251 17.5352 20.6251 18.0233ZM5.59832 17.1395H17.9733V10.9809C17.9733 7.5494 15.2031 4.76744 11.7858 4.76744C8.36855 4.76744 5.59832 7.5494 5.59832 10.9809V17.1395ZM9.79853 20.7569C9.55696 20.2603 10.0237 19.7907 10.576 19.7907H12.9956C13.5479 19.7907 14.0147 20.2603 13.7731 20.7569C13.6667 20.9758 13.5238 21.1776 13.3484 21.3529C12.934 21.7672 12.3719 22 11.7858 22C11.1997 22 10.6377 21.7672 10.2232 21.3529C10.0478 21.1776 9.90498 20.9758 9.79853 20.7569Z" fill="#768396"/>
<ellipse cx="18.1696" cy="5.5" rx="5.40179" ry="5.5" fill="#EA1E43"/>
<path d="M16.1224 8V7.256C16.4637 6.97333 16.7944 6.69333 17.1144 6.416C17.4397 6.13867 17.7277 5.864 17.9784 5.592C18.2344 5.32 18.437 5.056 18.5864 4.8C18.741 4.53867 18.8184 4.28533 18.8184 4.04C18.8184 3.81067 18.7544 3.608 18.6264 3.432C18.5037 3.256 18.2984 3.168 18.0104 3.168C17.717 3.168 17.4957 3.264 17.3464 3.456C17.197 3.648 17.1224 3.88 17.1224 4.152H16.1304C16.141 3.74133 16.2317 3.4 16.4024 3.128C16.573 2.85067 16.7997 2.64533 17.0824 2.512C17.365 2.37333 17.6824 2.304 18.0344 2.304C18.605 2.304 19.0477 2.46133 19.3624 2.776C19.6824 3.08533 19.8424 3.488 19.8424 3.984C19.8424 4.29333 19.7704 4.59467 19.6264 4.888C19.4877 5.18133 19.3037 5.464 19.0744 5.736C18.845 6.008 18.597 6.264 18.3304 6.504C18.0637 6.73867 17.805 6.95733 17.5544 7.16H19.9784V8H16.1224Z" fill="white"/>
</g>
<defs>
<clipPath id="clip0_217_100">
<rect width="23.5714" height="24" fill="white"/>
</clipPath>
</defs>
</svg>
