<svg width="24" height="24" viewBox="0 0 24 24" fill="none" xmlns="http://www.w3.org/2000/svg">
<path d="M16.18 19.6L14.17 16.12C15.15 15.4 15.83 14.28 15.97 13H20C19.9175 14.3207 19.5295 15.6042 18.8666 16.7495C18.2037 17.8947 17.2841 18.8705 16.18 19.6ZM13 7.03V3C17.3 3.26 20.74 6.7 21 11H16.97C16.8584 9.98546 16.4042 9.03928 15.6825 8.31756C14.9607 7.59584 14.0146 7.14168 13 7.03ZM7.00003 12.5C7.00003 13.14 7.13003 13.75 7.38003 14.3L3.90003 16.31C3.30485 15.1283 2.99652 13.8231 3.00003 12.5C3.00003 7.97 6.54003 4.27 11 4V8.03C8.75003 8.28 7.00003 10.18 7.00003 12.5ZM11.5 21C8.53003 21 5.92003 19.5 4.40003 17.18L7.88003 15.17C8.29638 15.7389 8.84137 16.2012 9.4705 16.5193C10.0996 16.8373 10.7951 17.002 11.5 17C12.14 17 12.75 16.87 13.3 16.62L15.31 20.1C14.16 20.68 12.87 21 11.5 21Z" fill="#9A9BA4"/>
</svg>
