<svg width="20" height="20" viewBox="0 0 20 20" fill="none" xmlns="http://www.w3.org/2000/svg">
<path d="M10.0112 0.25C10.7452 0.258 11.4762 0.343 12.1932 0.503C12.3458 0.53705 12.4839 0.617903 12.5882 0.734261C12.6926 0.850618 12.7579 0.996668 12.7752 1.152L12.9452 2.679C12.9692 2.89428 13.0434 3.10093 13.1619 3.28231C13.2803 3.46368 13.4397 3.61473 13.6271 3.72329C13.8146 3.83185 14.0249 3.89489 14.2411 3.90735C14.4574 3.9198 14.6736 3.88132 14.8722 3.795L16.2722 3.18C16.4145 3.11735 16.5727 3.10044 16.725 3.13161C16.8772 3.16278 17.0161 3.24049 17.1222 3.354C18.1345 4.43501 18.8884 5.73153 19.3272 7.146C19.3731 7.29474 19.3716 7.45406 19.3228 7.60189C19.2741 7.74971 19.1806 7.87871 19.0552 7.971L17.8142 8.887C17.6394 9.01517 17.4972 9.18273 17.3992 9.3761C17.3012 9.56947 17.2501 9.78321 17.2501 10C17.2501 10.2168 17.3012 10.4305 17.3992 10.6239C17.4972 10.8173 17.6394 10.9848 17.8142 11.113L19.0572 12.028C19.1828 12.1204 19.2764 12.2495 19.3252 12.3976C19.3739 12.5456 19.3753 12.7051 19.3292 12.854C18.8906 14.2683 18.137 15.5648 17.1252 16.646C17.0192 16.7595 16.8807 16.8372 16.7286 16.8686C16.5765 16.8999 16.4185 16.8833 16.2762 16.821L14.8702 16.204C14.6718 16.117 14.4557 16.0779 14.2394 16.09C14.0231 16.102 13.8127 16.1648 13.6251 16.2733C13.4376 16.3817 13.2782 16.5328 13.16 16.7143C13.0417 16.8958 12.9678 17.1026 12.9442 17.318L12.7742 18.844C12.7573 18.9975 12.6933 19.142 12.5911 19.2578C12.4889 19.3736 12.3535 19.4551 12.2032 19.491C10.7548 19.8356 9.24569 19.8356 7.79724 19.491C7.64684 19.4553 7.51116 19.3739 7.40877 19.2581C7.30638 19.1423 7.24228 18.9976 7.22524 18.844L7.05624 17.32C7.03169 17.1053 6.95714 16.8994 6.83857 16.7187C6.72001 16.5381 6.56073 16.3877 6.37353 16.2798C6.18633 16.1718 5.97643 16.1093 5.76068 16.0972C5.54493 16.0851 5.32935 16.1237 5.13124 16.21L3.72524 16.826C3.58289 16.8885 3.42464 16.9053 3.27236 16.8739C3.12008 16.8426 2.98131 16.7647 2.87524 16.651C1.86331 15.5685 1.11008 14.2706 0.672239 12.855C0.626135 12.7061 0.627555 12.5466 0.676302 12.3986C0.725048 12.2505 0.818699 12.1214 0.944239 12.029L2.18724 11.113C2.36209 10.9848 2.50428 10.8173 2.60229 10.6239C2.7003 10.4305 2.75138 10.2168 2.75138 10C2.75138 9.78321 2.7003 9.56947 2.60229 9.3761C2.50428 9.18273 2.36209 9.01517 2.18724 8.887L0.944239 7.973C0.818699 7.88065 0.725048 7.75148 0.676302 7.60345C0.627555 7.45542 0.626135 7.29588 0.672239 7.147C1.11106 5.73253 1.86497 4.43601 2.87724 3.355C2.98342 3.24149 3.12225 3.16378 3.27452 3.13261C3.4268 3.10144 3.58499 3.11835 3.72724 3.181L5.12724 3.796C5.32626 3.88227 5.54274 3.92066 5.75929 3.90809C5.97583 3.89551 6.18642 3.83232 6.37411 3.7236C6.56181 3.61487 6.72139 3.46363 6.84003 3.28204C6.95867 3.10045 7.03306 2.89356 7.05724 2.678L7.22724 1.152C7.2444 0.996355 7.30984 0.849984 7.4144 0.733414C7.51895 0.616845 7.65737 0.535924 7.81024 0.502C8.53323 0.342213 9.27084 0.257762 10.0112 0.25ZM9.99924 7C9.20359 7 8.44053 7.31607 7.87792 7.87868C7.31531 8.44129 6.99924 9.20435 6.99924 10C6.99924 10.7956 7.31531 11.5587 7.87792 12.1213C8.44053 12.6839 9.20359 13 9.99924 13C10.7949 13 11.558 12.6839 12.1206 12.1213C12.6832 11.5587 12.9992 10.7956 12.9992 10C12.9992 9.20435 12.6832 8.44129 12.1206 7.87868C11.558 7.31607 10.7949 7 9.99924 7Z" fill="#0A2472"/>
</svg>
