<svg width="46" height="46" viewBox="0 0 46 46" fill="none" xmlns="http://www.w3.org/2000/svg">
<circle cx="23" cy="23" r="23" fill="#3185FC" fill-opacity="0.2"/>
<path d="M16.904 32V25.084H15.28V23.012H16.904V20.996H15.28V18.924H16.904V12.008H21.3L23.484 18.924H26.032V12.008H29.14V18.924H30.736V20.996H29.14V23.012H30.736V25.084H29.14V32H24.716L22.476 25.084H20.012V32H16.904ZM20.012 23.012H21.86L21.244 20.996H19.956L20.012 23.012ZM26.116 27.632H26.256L26.144 25.084H25.388L26.116 27.632ZM19.9 18.924H20.684L19.872 16.236H19.76L19.9 18.924ZM24.8 23.012H26.088L26.032 20.996H24.156L24.8 23.012Z" fill="#3185FC"/>
</svg>
